<svg width="18" height="18" viewBox="0 0 18 18" fill="none" xmlns="http://www.w3.org/2000/svg">
<path d="M17.844 9.02392L9.42634 0.173088C9.37405 0.118296 9.31124 0.0747098 9.2417 0.0449608C9.17217 0.0152117 9.09735 -8.29134e-05 9.02176 3.38043e-07C8.94619 3.24601e-05 8.8714 0.0153795 8.80188 0.0451216C8.73236 0.0748637 8.66954 0.118389 8.61718 0.173088L0.156082 9.02364C-0.0584034 9.24795 -0.0508333 9.60398 0.172624 9.81956C0.396081 10.0346 0.750753 10.0284 0.965519 9.80296L1.71914 9.01435V17.4371C1.71914 17.7481 1.97036 18 2.27989 18H6.19726C6.50623 18 6.75689 17.7492 6.75801 17.4388L6.77567 11.8158H11.244V17.4371C11.244 17.7481 11.4949 18 11.8047 18H15.7207C16.0305 18 16.2814 17.7481 16.2814 17.4371V9.01152L17.0348 9.80378C17.0871 9.85852 17.15 9.90207 17.2195 9.93182C17.289 9.96156 17.3638 9.97689 17.4394 9.97687C17.579 9.97687 17.7192 9.92509 17.8277 9.81955C18.0509 9.60452 18.0582 9.24823 17.844 9.02392ZM15.16 7.99412V16.8742H12.3656V11.2532C12.3656 10.9422 12.1146 10.6903 11.8048 10.6903H6.21698C5.90801 10.6903 5.65735 10.9411 5.65623 11.2515L5.63857 16.8745H2.84072V7.9941C2.84072 7.94766 2.83343 7.9032 2.82306 7.85985L9.02211 1.3757L15.1802 7.85255C15.1682 7.89815 15.16 7.94515 15.16 7.99412Z" fill="#4D38D7"/>
</svg>
