<svg width="18" height="18" viewBox="0 0 18 18" fill="none" xmlns="http://www.w3.org/2000/svg">
<path d="M0 9.21094C0 10.2188 0.287109 11.168 0.861328 12.0586C1.43555 12.9492 2.20312 13.6758 3.16406 14.2383C3.11719 14.4023 3.06445 14.6133 3.00586 14.8711C2.94727 15.1289 2.86523 15.5332 2.75977 16.084C2.6543 16.6348 2.61328 17.0918 2.63672 17.4551C2.66016 17.8184 2.77734 18 2.98828 18C3.69141 18 4.40039 17.8125 5.11523 17.4375C5.83008 17.0625 6.39844 16.6875 6.82031 16.3125C7.24219 15.9375 7.46484 15.75 7.48828 15.75C8.77734 15.75 10.0312 15.5039 11.25 15.0117C11.1094 14.9648 10.8457 14.8242 10.459 14.5898C10.0723 14.3555 9.83203 14.2383 9.73828 14.2383H7.48828C7.06641 14.2383 6.62109 14.4727 6.15234 14.9414C5.49609 15.5273 4.875 15.9492 4.28906 16.207L4.5 13.5L3.90234 12.9727C2.30859 11.9414 1.51172 10.6875 1.51172 9.21094C1.51172 8.83594 1.58203 8.41406 1.72266 7.94531C1.62891 7.80469 1.56445 7.58789 1.5293 7.29492C1.49414 7.00195 1.47656 6.73828 1.47656 6.50391V5.69531L1.51172 5.23828C0.503906 6.31641 0 7.64062 0 9.21094ZM10.5117 0C8.42578 0 6.65039 0.609375 5.18555 1.82812C3.7207 3.04688 2.98828 4.51172 2.98828 6.22266C2.98828 7.91016 3.71484 9.29297 5.16797 10.3711C6.62109 11.4492 8.40234 11.9883 10.5117 11.9883C10.5352 11.9883 10.7754 12.2402 11.2324 12.7441C11.6895 13.248 12.293 13.752 13.043 14.2559C13.793 14.7598 14.5195 15.0117 15.2227 15.0117C15.3867 15.0117 15.4863 14.8828 15.5215 14.625C15.5566 14.3672 15.5391 14.0566 15.4688 13.6934C15.3984 13.3301 15.3164 12.9609 15.2227 12.5859C15.1289 12.2109 15.0469 11.8945 14.9766 11.6367L14.8359 11.25C15.7969 10.6641 16.5645 9.93164 17.1387 9.05273C17.7129 8.17383 18 7.23047 18 6.22266C18 4.51172 17.2676 3.04688 15.8027 1.82812C14.3379 0.609375 12.5742 0 10.5117 0ZM14.0977 9.98438L13.1133 10.582L13.5 11.707C13.5469 11.8242 13.6055 12.0234 13.6758 12.3047C13.7461 12.5859 13.8164 12.8086 13.8867 12.9727C13.3711 12.6211 12.7617 12.0938 12.0586 11.3906C11.5195 10.8047 11.0273 10.5117 10.582 10.5117C8.94141 10.5117 7.5293 10.1309 6.3457 9.36914C5.16211 8.60742 4.57031 7.55859 4.57031 6.22266C4.54688 4.91016 5.11523 3.79688 6.27539 2.88281C7.43555 1.96875 8.84766 1.51172 10.5117 1.51172C12.1758 1.51172 13.5879 1.96875 14.748 2.88281C15.9082 3.79688 16.4883 4.91016 16.4883 6.22266C16.4883 7.69922 15.6914 8.95312 14.0977 9.98438Z" fill="#4D38D7"/>
</svg>
