<svg width="20" height="20" viewBox="0 0 20 20" fill="none" xmlns="http://www.w3.org/2000/svg">
<path d="M15.4 13V7C15.4 4.172 15.4 2.757 14.6089 1.879C13.8187 1 12.5452 1 9.99998 1H6.39999C3.85479 1 2.5813 1 1.7911 1.879C1 2.757 1 4.172 1 7V13C1 15.828 1 17.243 1.7911 18.121C2.5813 19 3.85479 19 6.39999 19H17.2M4.59999 6H11.8M4.59999 10H11.8M4.59999 14H8.19999" stroke="#4D38D7" stroke-linecap="round" stroke-linejoin="round"/>
<path d="M15.3999 6H16.2999C17.5725 6 18.2088 6 18.6039 6.44C18.9999 6.879 18.9999 7.586 18.9999 9V17C18.9999 17.5304 18.8103 18.0391 18.4727 18.4142C18.1351 18.7893 17.6773 19 17.1999 19C16.7225 19 16.2647 18.7893 15.9271 18.4142C15.5895 18.0391 15.3999 17.5304 15.3999 17V6Z" stroke="#4D38D7" stroke-linecap="round" stroke-linejoin="round"/>
</svg>
