<svg width="18" height="18" viewBox="0 0 18 18" fill="none" xmlns="http://www.w3.org/2000/svg">
<path d="M15.1473 6.49688C15.5826 6.70313 15.9743 6.95625 16.3225 7.25625C16.6708 7.55625 16.9721 7.89375 17.2266 8.26875C17.481 8.64375 17.6719 9.04375 17.7991 9.46875C17.9263 9.89375 17.9933 10.3375 18 10.8H16.7143C16.7143 10.3063 16.6138 9.84063 16.4129 9.40313C16.2121 8.96563 15.9342 8.58438 15.5792 8.25938C15.2243 7.93438 14.8158 7.67813 14.3538 7.49063C13.8917 7.30313 13.3929 7.20625 12.8571 7.2C12.3281 7.2 11.8292 7.29375 11.3605 7.48125C10.8917 7.66875 10.4833 7.92813 10.135 8.25938C9.78683 8.59063 9.51228 8.97188 9.31138 9.40313C9.11049 9.83438 9.0067 10.3 9 10.8C9 11.3688 8.86272 11.9094 8.58817 12.4219C8.31362 12.9344 7.92857 13.3594 7.43304 13.6969C7.8683 13.9031 8.26004 14.1563 8.60826 14.4563C8.95647 14.7563 9.25781 15.0938 9.51228 15.4688C9.76674 15.8438 9.95759 16.2438 10.0848 16.6688C10.2121 17.0938 10.279 17.5375 10.2857 18H9C9 17.5063 8.89955 17.0406 8.69866 16.6031C8.49777 16.1656 8.21987 15.7844 7.86496 15.4594C7.51004 15.1344 7.10156 14.8781 6.63951 14.6906C6.17746 14.5031 5.67857 14.4063 5.14286 14.4C4.61384 14.4 4.11496 14.4938 3.64621 14.6813C3.17746 14.8688 2.76897 15.1281 2.42076 15.4594C2.07254 15.7906 1.79799 16.1719 1.5971 16.6031C1.39621 17.0344 1.29241 17.5 1.28571 18H0C0 17.5438 0.0669643 17.1031 0.200893 16.6781C0.334821 16.2531 0.52567 15.8531 0.773438 15.4781C1.02121 15.1031 1.3192 14.7656 1.66741 14.4656C2.01562 14.1656 2.41071 13.9094 2.85268 13.6969C2.36384 13.3594 1.98214 12.9344 1.70759 12.4219C1.43304 11.9094 1.29241 11.3688 1.28571 10.8C1.28571 10.3063 1.38616 9.84063 1.58705 9.40313C1.78795 8.96563 2.06585 8.58438 2.42076 8.25938C2.77567 7.93438 3.18415 7.67813 3.64621 7.49063C4.10826 7.30313 4.60714 7.20625 5.14286 7.2C5.75223 7.2 6.33147 7.32813 6.88058 7.58438C7.42969 7.84063 7.88504 8.2 8.24665 8.6625C8.50112 8.19375 8.82589 7.775 9.22098 7.40625C9.61607 7.0375 10.0647 6.73438 10.567 6.49688C10.0781 6.15938 9.69643 5.73438 9.42188 5.22188C9.14732 4.70938 9.0067 4.16875 9 3.6C9 3.10625 9.10045 2.64062 9.30134 2.20312C9.50223 1.76562 9.78013 1.38438 10.135 1.05938C10.49 0.734375 10.8984 0.478125 11.3605 0.290625C11.8225 0.103125 12.3214 0.00625 12.8571 0C13.3862 0 13.885 0.09375 14.3538 0.28125C14.8225 0.46875 15.231 0.728125 15.5792 1.05938C15.9275 1.39062 16.202 1.77188 16.4029 2.20312C16.6038 2.63438 16.7076 3.1 16.7143 3.6C16.7143 4.16875 16.577 4.70938 16.3025 5.22188C16.0279 5.73438 15.6429 6.15938 15.1473 6.49688ZM5.14286 13.2C5.49107 13.2 5.82254 13.1375 6.13728 13.0125C6.45201 12.8875 6.72321 12.7156 6.95089 12.4969C7.17857 12.2781 7.36272 12.025 7.50335 11.7375C7.64397 11.45 7.71429 11.1375 7.71429 10.8C7.71429 10.475 7.64732 10.1656 7.51339 9.87188C7.37946 9.57812 7.19531 9.325 6.96094 9.1125C6.72656 8.9 6.45201 8.72813 6.13728 8.59688C5.82254 8.46563 5.49107 8.4 5.14286 8.4C4.78795 8.4 4.45647 8.4625 4.14844 8.5875C3.8404 8.7125 3.5692 8.88438 3.33482 9.10313C3.10045 9.32188 2.91629 9.57812 2.78237 9.87188C2.64844 10.1656 2.57812 10.475 2.57143 10.8C2.57143 11.1313 2.63839 11.4406 2.77232 11.7281C2.90625 12.0156 3.0904 12.2688 3.32478 12.4875C3.55915 12.7063 3.83036 12.8781 4.13839 13.0031C4.44643 13.1281 4.78125 13.1938 5.14286 13.2ZM10.2857 3.6C10.2857 3.93125 10.3527 4.24063 10.4866 4.52813C10.6205 4.81563 10.8047 5.06875 11.0391 5.2875C11.2734 5.50625 11.5446 5.67813 11.8527 5.80313C12.1607 5.92813 12.4955 5.99375 12.8571 6C13.2054 6 13.5368 5.9375 13.8516 5.8125C14.1663 5.6875 14.4375 5.51562 14.6652 5.29688C14.8929 5.07812 15.077 4.825 15.2176 4.5375C15.3583 4.25 15.4286 3.9375 15.4286 3.6C15.4286 3.275 15.3616 2.96563 15.2277 2.67188C15.0938 2.37813 14.9096 2.125 14.6752 1.9125C14.4408 1.7 14.1663 1.52813 13.8516 1.39688C13.5368 1.26562 13.2054 1.2 12.8571 1.2C12.5022 1.2 12.1708 1.2625 11.8627 1.3875C11.5547 1.5125 11.2835 1.68438 11.0491 1.90313C10.8147 2.12188 10.6306 2.37813 10.4967 2.67188C10.3627 2.96563 10.2924 3.275 10.2857 3.6Z" fill="#4D38D7"/>
</svg>
