<svg width="18" height="18" viewBox="0 0 18 18" fill="none" xmlns="http://www.w3.org/2000/svg">
<path d="M16.8209 11.8421L15.0615 10.6105C15.3515 9.58737 15.3708 8.47895 15.0615 7.37053L16.8209 6.1579L15.4191 3.78947L13.4567 4.66105C12.6929 3.90316 11.7262 3.31579 10.5951 3.04105L10.4018 0.947368H7.59823L7.40488 3.04105C6.2738 3.31579 5.30706 3.90316 4.54333 4.66105L2.58085 3.78947L1.17908 6.1579L2.93855 7.37053C2.62919 8.47895 2.64853 9.58737 2.93855 10.6105L1.17908 11.8421L2.58085 14.2105L4.54333 13.3295C5.30706 14.0779 6.2738 14.6463 7.40488 14.94L7.59823 17.0526H10.4018L10.5951 14.94C11.7262 14.6463 12.6929 14.0779 13.4567 13.3295L15.4191 14.2105L16.8209 11.8421ZM10.9335 0C11.1945 0 11.4168 0.189474 11.4168 0.43579L11.5909 2.36842C12.3256 2.63368 12.983 3.02211 13.5727 3.48632L15.3611 2.66211C15.5835 2.54842 15.8638 2.62421 15.9992 2.84211L17.9327 6.1579C18.068 6.35684 17.9907 6.63158 17.778 6.77368L16.1635 7.88211C16.2892 8.64 16.2795 9.38842 16.1635 10.1179L17.778 11.2263C17.9907 11.3684 18.068 11.6432 17.9327 11.8421L15.9992 15.1579C15.8638 15.3568 15.5835 15.4326 15.3611 15.3189L13.5727 14.5042C12.983 14.9684 12.3256 15.3474 11.5909 15.6316L11.4168 17.5263C11.4168 17.8011 11.1945 18 10.9335 18H7.06652C6.93832 18 6.81538 17.9501 6.72473 17.8613C6.63408 17.7724 6.58315 17.6519 6.58315 17.5263L6.40914 15.6316C5.67442 15.3474 5.01704 14.9684 4.42732 14.5042L2.63886 15.3189C2.41651 15.4326 2.13615 15.3568 2.00081 15.1579L0.0673322 11.8421C-0.0680113 11.6432 0.00932793 11.3684 0.22201 11.2263L1.83646 10.1179C1.72046 9.38842 1.71079 8.64 1.83646 7.88211L0.22201 6.77368C0.00932793 6.63158 -0.0680113 6.35684 0.0673322 6.1579L2.00081 2.84211C2.13615 2.62421 2.41651 2.54842 2.63886 2.66211L4.42732 3.48632C5.01704 3.02211 5.67442 2.63368 6.40914 2.36842L6.58315 0.43579C6.58315 0.189474 6.8055 0 7.06652 0H10.9335ZM9 5.68421C9.89738 5.68421 10.758 6.03355 11.3926 6.65538C12.0271 7.27721 12.3836 8.1206 12.3836 9C12.3836 9.8794 12.0271 10.7228 11.3926 11.3446C10.758 11.9664 9.89738 12.3158 9 12.3158C8.10262 12.3158 7.24199 11.9664 6.60744 11.3446C5.9729 10.7228 5.61641 9.8794 5.61641 9C5.61641 8.1206 5.9729 7.27721 6.60744 6.65538C7.24199 6.03355 8.10262 5.68421 9 5.68421ZM9 6.63158C8.35901 6.63158 7.74428 6.88111 7.29103 7.32527C6.83778 7.76944 6.58315 8.37186 6.58315 9C6.58315 9.62814 6.83778 10.2306 7.29103 10.6747C7.74428 11.1189 8.35901 11.3684 9 11.3684C9.64099 11.3684 10.2557 11.1189 10.709 10.6747C11.1622 10.2306 11.4168 9.62814 11.4168 9C11.4168 8.37186 11.1622 7.76944 10.709 7.32527C10.2557 6.88111 9.64099 6.63158 9 6.63158Z" fill="#4D38D7"/>
</svg>
