<svg width="1084" height="68" viewBox="0 0 1084 68" fill="none" xmlns="http://www.w3.org/2000/svg">
<g clip-path="url(#clip0_251_154)">
<path d="M17.1671 11.4268C18.2622 11.2139 19.3885 11.2188 20.4817 11.4412C21.5749 11.6636 22.6136 12.0992 23.5385 12.723C24.4633 13.3469 25.2563 14.1468 25.872 15.077C26.4878 16.0073 26.9142 17.0498 27.1271 18.1449L31.5336 40.8144C31.7802 42.1001 31.7646 43.4222 31.4877 44.7017C31.2109 45.9812 30.6786 47.1916 29.9226 48.2603C29.1667 49.329 28.2027 50.2341 27.0885 50.9213C25.9743 51.6085 24.7328 52.0636 23.4385 52.2593C22.1442 52.455 20.8236 52.3874 19.556 52.0604C18.2885 51.7334 17.1 51.1539 16.0618 50.3564C15.0237 49.559 14.1572 48.5602 13.5145 47.4198C12.8717 46.2794 12.4658 45.0209 12.3212 43.7199C9.91909 41.9687 7.85426 38.043 7.1766 34.5568C6.25443 29.8126 7.68817 24.7487 10.6703 22.2819C10.3169 21.1418 10.2077 19.94 10.3498 18.7549C10.4919 17.5698 10.8822 16.428 11.4952 15.4038C12.1081 14.3796 12.9301 13.4961 13.9073 12.8109C14.8846 12.1256 15.9954 11.654 17.1671 11.4268Z" stroke="white" stroke-width="2" stroke-linecap="round" stroke-linejoin="round"/>
<path d="M16.1799 27.0942C14.8991 27.0523 11.7741 25.7725 10.668 22.3077M23.1111 35.4592C28.0056 33.926 28.9595 28.2645 28.6717 26.0914M13.9028 38.2199C12.8461 39.4435 12.2849 41.8688 12.3134 43.7177M33.8451 8.18483C31.6334 8.61473 29.6832 9.9056 28.4233 11.7735C27.1634 13.6413 26.6971 15.9332 27.127 18.1448L31.5335 40.8144C31.7865 42.0988 32.2963 43.3188 33.0323 44.4014C33.7682 45.484 34.7152 46.4069 35.8165 47.1146C36.9177 47.8223 38.1505 48.3004 39.441 48.5202C40.7315 48.7399 42.0531 48.6968 43.3265 48.3934C44.5999 48.09 45.799 47.5326 46.8518 46.7546C47.9045 45.9766 48.7894 44.994 49.4532 43.8658C50.1171 42.7375 50.5462 41.4868 50.715 40.1887C50.8838 38.8905 50.7887 37.5717 50.4354 36.3112C52.0066 33.7877 52.447 29.375 51.7693 25.8888C50.8471 21.1446 47.6243 16.9859 43.9317 15.8164C43.8324 14.6273 43.4836 13.4724 42.9081 12.4271C42.3326 11.3817 41.5434 10.4693 40.5918 9.7493C39.6402 9.02931 38.5476 8.51787 37.3851 8.24832C36.2227 7.97876 35.0165 7.95713 33.8451 8.18483Z" stroke="white" stroke-width="2" stroke-linecap="round" stroke-linejoin="round"/>
<path d="M40.6296 22.3416C41.8014 21.8229 44.2194 19.4657 43.9472 15.8388M37.3367 32.6939C32.2243 33.1059 29.2189 28.214 28.6718 26.0913M46.9087 31.8042C48.3467 32.5428 49.7757 34.5813 50.4418 36.3062" stroke="white" stroke-width="2" stroke-linecap="round" stroke-linejoin="round"/>
</g>
<g clip-path="url(#clip1_251_154)">
<path d="M77.9492 13.6865L108.499 20.18M81.0042 14.3359L74.0778 46.922C73.8481 48.0023 74.0571 49.1296 74.6586 50.0559C75.2601 50.9821 76.2049 51.6315 77.2852 51.8611L93.5783 55.3243C94.6586 55.5539 95.7859 55.345 96.7121 54.7435C97.6384 54.142 98.2878 53.1971 98.5174 52.1169L105.444 19.5307M76.2423 36.7389L100.682 41.9337" stroke="white" stroke-width="2" stroke-linecap="round" stroke-linejoin="round"/>
</g>
<path d="M137.984 42.8053L154.577 41.3536M132.487 51.6466L169.823 48.3801M155.303 49.6504C159.154 49.3135 162.713 47.4607 165.198 44.4995C167.683 41.5384 168.889 37.7115 168.552 33.8606C168.215 30.0098 166.363 26.4506 163.401 23.9659C160.44 21.4812 156.613 20.2746 152.763 20.6115L150.688 20.7929M143.48 33.9641L147.629 33.6011M148.251 16.826L147.707 10.6033C147.659 10.0532 147.394 9.54476 146.971 9.1898C146.548 8.83484 146.001 8.66246 145.451 8.71059L141.303 9.07353C140.753 9.12166 140.244 9.38635 139.889 9.80937C139.534 10.2324 139.362 10.7791 139.41 11.3292L139.954 17.5519M143.117 29.8157C142.017 29.9119 140.924 29.5672 140.078 28.8572C139.232 28.1473 138.702 27.1304 138.606 26.0302L137.88 17.7333L150.325 16.6445L151.051 24.9413C151.148 26.0416 150.803 27.135 150.093 27.981C149.383 28.8271 148.366 29.3565 147.266 29.4527L143.117 29.8157Z" stroke="white" stroke-width="2" stroke-linecap="round" stroke-linejoin="round"/>
<g clip-path="url(#clip2_251_154)">
<path d="M190.659 46.3611C201.106 30.8812 217.596 39.6451 228.043 24.1651M208.327 56.9772C210.953 52.0349 211.402 47.6378 210.979 43.4556M210.375 13.5491C207.749 18.4913 207.3 22.8885 207.722 27.0706M216.43 20.6228L210.12 16.8314M211.377 26.1746L208.853 24.658M202.272 49.9034L208.582 53.6949M193.438 44.5954L194.7 45.3537M224.002 25.1726L225.264 25.9309M198.491 39.0437L201.015 40.5603M217.687 29.966L220.211 31.4826M207.325 44.3517L211.111 46.6266" stroke="white" stroke-width="2" stroke-linecap="round" stroke-linejoin="round"/>
</g>
<path d="M263.4 8.89211L264.727 24.0546M271.695 8.14549L273.022 23.308C276.164 24.0289 278.946 25.8479 280.867 28.4376C282.787 31.0273 283.72 34.2175 283.497 37.4339C283.275 40.6503 281.911 43.6815 279.652 45.9819C277.393 48.2822 274.387 49.7006 271.175 49.9816C267.963 50.2626 264.757 49.3878 262.133 47.5146C259.509 45.6415 257.639 42.8931 256.862 39.7642C256.084 36.6354 256.449 33.3316 257.89 30.4478C259.332 27.5639 261.755 25.2895 264.725 24.0339M260.289 9.16432L274.808 7.89403M256.648 38.7441L283.53 36.3922" stroke="white" stroke-width="2" stroke-linecap="round" stroke-linejoin="round"/>
<path d="M337.172 28.9498C345.696 39.4763 349.113 50.8331 344.806 54.3206C340.504 57.8065 330.101 52.1009 321.579 41.5767C313.055 31.0502 309.638 19.6934 313.945 16.2059C318.247 12.72 328.647 18.4254 337.172 28.9498Z" stroke="white" stroke-width="2" stroke-linecap="round" stroke-linejoin="round"/>
<path d="M328.857 35.2088L329.893 35.3176M323.064 27.467C312.537 35.9912 306.832 46.3892 310.32 50.6959C313.805 55.0004 325.164 51.582 335.689 43.0597C346.215 34.5355 351.92 24.1374 348.433 19.8307C344.947 15.5263 333.588 18.9446 323.064 27.467Z" stroke="white" stroke-width="2" stroke-linecap="round" stroke-linejoin="round"/>
<g clip-path="url(#clip3_251_154)">
<path d="M377.891 10.992C378.992 10.8175 380.118 10.8617 381.203 11.1221C382.287 11.3826 383.31 11.8541 384.213 12.5098C385.115 13.1656 385.88 13.9926 386.463 14.9438C387.046 15.895 387.435 16.9517 387.61 18.0536L391.223 40.8631C391.424 42.1566 391.362 43.4774 391.041 44.7465C390.72 46.0155 390.146 47.2065 389.353 48.2483C388.56 49.29 387.565 50.1609 386.428 50.8087C385.29 51.4566 384.033 51.8681 382.733 52.0185C381.433 52.169 380.115 52.0553 378.86 51.6843C377.605 51.3133 376.437 50.6926 375.427 49.8594C374.418 49.0262 373.587 47.9977 372.984 46.8356C372.381 45.6735 372.02 44.4016 371.921 43.0963C369.581 41.2624 367.654 37.2671 367.099 33.7592C366.343 28.9858 367.952 23.975 371.019 21.6138C370.705 20.462 370.638 19.2572 370.822 18.0778C371.005 16.8984 371.435 15.7708 372.083 14.7687C372.732 13.7665 373.584 12.9122 374.584 12.2615C375.585 11.6108 376.712 11.1782 377.891 10.992Z" stroke="white" stroke-width="2" stroke-linecap="round" stroke-linejoin="round"/>
<path d="M376.357 26.6155C375.079 26.5289 372 25.1408 371.016 21.6395M382.992 35.2172C387.937 33.8558 389.088 28.231 388.876 26.0493M373.693 37.655C372.594 38.8409 371.949 41.2451 371.913 43.0939M394.672 8.33413C392.446 8.68659 390.452 9.9086 389.128 11.7314C387.803 13.5541 387.257 15.8283 387.61 18.0536L391.223 40.8631C391.431 42.1556 391.898 43.3927 392.595 44.5003C393.293 45.6079 394.207 46.5632 395.283 47.309C396.359 48.0547 397.574 48.5755 398.856 48.8402C400.138 49.1048 401.461 49.1079 402.744 48.8491C404.027 48.5904 405.245 48.0751 406.324 47.3343C407.403 46.5935 408.322 45.6424 409.025 44.538C409.728 43.4336 410.2 42.1987 410.414 40.9072C410.628 39.6158 410.579 38.2944 410.27 37.0223C411.928 34.5552 412.523 30.1606 411.967 26.6528C411.211 21.8794 408.135 17.6107 404.486 16.3131C404.428 15.1212 404.12 13.9549 403.581 12.8901C403.042 11.8253 402.285 10.8859 401.36 10.1331C400.434 9.38034 399.359 8.83108 398.207 8.52112C397.055 8.21116 395.85 8.14745 394.672 8.33413Z" stroke="white" stroke-width="2" stroke-linecap="round" stroke-linejoin="round"/>
<path d="M400.958 22.7191C402.147 22.2416 404.646 19.9703 404.5 16.3361M397.305 32.9502C392.182 33.1835 389.349 28.1897 388.876 26.0492M406.903 32.395C408.314 33.1834 409.671 35.2705 410.277 37.0177" stroke="white" stroke-width="2" stroke-linecap="round" stroke-linejoin="round"/>
</g>
<path d="M435.476 15.2341L466.589 17.9562M438.587 15.5063L435.684 48.6937C435.588 49.794 435.932 50.8874 436.642 51.7334C437.352 52.5795 438.369 53.1088 439.469 53.2051L456.063 54.6569C457.163 54.7531 458.257 54.4084 459.103 53.6984C459.949 52.9885 460.478 51.9716 460.574 50.8714L463.478 17.684M436.591 38.3227L461.482 40.5003" stroke="white" stroke-width="2" stroke-linecap="round" stroke-linejoin="round"/>
<path d="M498.053 42.8053L514.647 41.3536M492.557 51.6466L529.892 48.3801M515.373 49.6504C519.224 49.3135 522.783 47.4607 525.268 44.4995C527.752 41.5384 528.959 37.7115 528.622 33.8606C528.285 30.0098 526.432 26.4506 523.471 23.9659C520.51 21.4812 516.683 20.2746 512.832 20.6115L510.758 20.7929M503.55 33.9641L507.699 33.6011M508.321 16.826L507.777 10.6033C507.728 10.0532 507.464 9.54476 507.041 9.1898C506.618 8.83484 506.071 8.66246 505.521 8.71059L501.373 9.07353C500.822 9.12166 500.314 9.38635 499.959 9.80937C499.604 10.2324 499.432 10.7791 499.48 11.3292L500.024 17.5519M503.187 29.8157C502.087 29.9119 500.994 29.5672 500.148 28.8572C499.301 28.1473 498.772 27.1304 498.676 26.0302L497.95 17.7333L510.395 16.6445L511.121 24.9413C511.217 26.0416 510.873 27.135 510.163 27.981C509.453 28.8271 508.436 29.3565 507.336 29.4527L503.187 29.8157Z" stroke="white" stroke-width="2" stroke-linecap="round" stroke-linejoin="round"/>
<g clip-path="url(#clip4_251_154)">
<path d="M555.539 18.5125C572.463 26.4092 566.386 44.0667 583.31 51.9635M547.818 37.6237C553.11 39.4443 557.523 39.1996 561.588 38.128M591.031 32.8523C585.739 31.0317 581.326 31.2764 577.261 32.348M584.992 39.9397L587.75 33.1143M578.718 35.817L579.821 33.0868M553.857 30.5362L551.099 37.3617M557.718 20.9806L557.166 22.3457M581.683 48.1302L581.131 49.4953M563.992 25.1034L562.889 27.8335M575.96 42.6424L574.857 45.3726M560.131 34.659L558.476 38.7542" stroke="white" stroke-width="2" stroke-linecap="round" stroke-linejoin="round"/>
</g>
<path d="M627.469 8.12901L625.878 23.266M635.755 8.97887L634.164 24.1159C637.111 25.4232 639.494 27.7396 640.885 30.6481C642.277 33.5567 642.584 36.8663 641.751 39.9811C640.919 43.0959 639.002 45.8113 636.346 47.6383C633.689 49.4654 630.468 50.2841 627.261 49.9471C624.055 49.6101 621.074 48.1395 618.856 45.8001C616.637 43.4606 615.327 40.406 615.16 37.1863C614.994 33.9665 615.982 30.793 617.948 28.2373C619.913 25.6815 622.726 23.9113 625.881 23.2453M624.363 7.80254L638.858 9.32604M615.146 36.1442L641.982 38.9648" stroke="white" stroke-width="2" stroke-linecap="round" stroke-linejoin="round"/>
<g clip-path="url(#clip5_251_154)">
<path d="M698.489 30.8655C704.426 43.0397 705.201 54.874 700.22 57.3033C695.244 59.732 686.391 51.8327 680.455 39.6611C674.517 27.4869 673.743 15.6526 678.724 13.2233C683.7 10.7946 692.55 18.6932 698.489 30.8655Z" stroke="white" stroke-width="2" stroke-linecap="round" stroke-linejoin="round"/>
<path d="M688.979 35.0937L689.964 35.4327M685.076 26.247C672.901 32.1848 665.003 41.033 667.433 46.0138C669.861 50.992 681.698 50.2166 693.869 44.2801C706.044 38.3423 713.942 29.4941 711.512 24.5133C709.084 19.5351 697.247 20.3105 685.076 26.247Z" stroke="white" stroke-width="2" stroke-linecap="round" stroke-linejoin="round"/>
</g>
<g clip-path="url(#clip6_251_154)">
<path d="M744.31 11.4268C745.405 11.2139 746.531 11.2188 747.624 11.4412C748.717 11.6636 749.756 12.0992 750.681 12.723C751.606 13.3469 752.399 14.1468 753.015 15.077C753.63 16.0073 754.057 17.0498 754.27 18.1449L758.676 40.8144C758.923 42.1001 758.907 43.4222 758.63 44.7017C758.353 45.9812 757.821 47.1916 757.065 48.2603C756.309 49.329 755.345 50.2341 754.231 50.9213C753.117 51.6085 751.875 52.0636 750.581 52.2593C749.287 52.455 747.966 52.3874 746.699 52.0604C745.431 51.7334 744.243 51.1539 743.204 50.3564C742.166 49.559 741.3 48.5602 740.657 47.4198C740.014 46.2794 739.608 45.0209 739.464 43.7199C737.062 41.9687 734.997 38.043 734.319 34.5568C733.397 29.8126 734.831 24.7487 737.813 22.2819C737.459 21.1418 737.35 19.94 737.492 18.7549C737.635 17.5698 738.025 16.428 738.638 15.4038C739.251 14.3796 740.073 13.4961 741.05 12.8109C742.027 12.1256 743.138 11.654 744.31 11.4268Z" stroke="white" stroke-width="2" stroke-linecap="round" stroke-linejoin="round"/>
<path d="M743.323 27.0942C742.042 27.0523 738.917 25.7725 737.811 22.3077M750.254 35.4592C755.148 33.926 756.102 28.2645 755.814 26.0914M741.045 38.2199C739.989 39.4435 739.427 41.8688 739.456 43.7177M760.988 8.18483C758.776 8.61473 756.826 9.9056 755.566 11.7735C754.306 13.6413 753.84 15.9332 754.27 18.1448L758.676 40.8144C758.929 42.0988 759.439 43.3188 760.175 44.4014C760.911 45.484 761.858 46.4069 762.959 47.1146C764.06 47.8223 765.293 48.3004 766.584 48.5202C767.874 48.7399 769.196 48.6968 770.469 48.3934C771.743 48.09 772.942 47.5326 773.994 46.7546C775.047 45.9766 775.932 44.994 776.596 43.8658C777.26 42.7375 777.689 41.4868 777.858 40.1887C778.026 38.8905 777.931 37.5717 777.578 36.3112C779.149 33.7877 779.59 29.375 778.912 25.8888C777.99 21.1446 774.767 16.9859 771.074 15.8164C770.975 14.6273 770.626 13.4724 770.051 12.4271C769.475 11.3817 768.686 10.4693 767.734 9.7493C766.783 9.02931 765.69 8.51787 764.528 8.24832C763.365 7.97876 762.159 7.95713 760.988 8.18483Z" stroke="white" stroke-width="2" stroke-linecap="round" stroke-linejoin="round"/>
<path d="M767.772 22.3416C768.944 21.8229 771.362 19.4657 771.09 15.8388M764.479 32.6939C759.367 33.1059 756.362 28.214 755.814 26.0913M774.051 31.8042C775.489 32.5428 776.918 34.5813 777.584 36.3062" stroke="white" stroke-width="2" stroke-linecap="round" stroke-linejoin="round"/>
</g>
<g clip-path="url(#clip7_251_154)">
<path d="M805.092 13.6865L835.641 20.18M808.147 14.3359L801.22 46.922C800.991 48.0023 801.2 49.1296 801.801 50.0559C802.403 50.9821 803.348 51.6315 804.428 51.8611L820.721 55.3243C821.801 55.5539 822.928 55.345 823.855 54.7435C824.781 54.142 825.43 53.1971 825.66 52.1169L832.586 19.5307M803.385 36.7389L827.824 41.9337" stroke="white" stroke-width="2" stroke-linecap="round" stroke-linejoin="round"/>
</g>
<path d="M865.126 42.8053L881.72 41.3536M859.629 51.6466L896.965 48.3801M882.446 49.6504C886.297 49.3135 889.856 47.4607 892.34 44.4995C894.825 41.5384 896.032 37.7115 895.695 33.8606C895.358 30.0098 893.505 26.4506 890.544 23.9659C887.583 21.4812 883.756 20.2746 879.905 20.6115L877.831 20.7929M870.623 33.9641L874.771 33.6011M875.394 16.826L874.849 10.6033C874.801 10.0532 874.537 9.54476 874.114 9.1898C873.691 8.83484 873.144 8.66246 872.594 8.71059L868.445 9.07353C867.895 9.12166 867.387 9.38635 867.032 9.80937C866.677 10.2324 866.504 10.7791 866.553 11.3292L867.097 17.5519M870.26 29.8157C869.16 29.9119 868.066 29.5672 867.22 28.8572C866.374 28.1473 865.845 27.1304 865.749 26.0302L865.023 17.7333L877.468 16.6445L878.194 24.9413C878.29 26.0416 877.945 27.135 877.235 27.981C876.526 28.8271 875.509 29.3565 874.408 29.4527L870.26 29.8157Z" stroke="white" stroke-width="2" stroke-linecap="round" stroke-linejoin="round"/>
<g clip-path="url(#clip8_251_154)">
<path d="M917.802 46.338C928.249 30.858 944.738 39.6219 955.185 24.1419M935.47 56.954C938.096 52.0117 938.544 47.6146 938.122 43.4325M937.517 13.5259C934.891 18.4681 934.442 22.8653 934.865 27.0474M943.573 20.5997L937.263 16.8082M938.519 26.1514L935.995 24.6348M929.414 49.8802L935.724 53.6717M920.58 44.5722L921.842 45.3305M951.145 25.1494L952.407 25.9077M925.634 39.0205L928.158 40.5371M944.829 29.9428L947.353 31.4594M934.468 44.3285L938.254 46.6034" stroke="white" stroke-width="2" stroke-linecap="round" stroke-linejoin="round"/>
</g>
<path d="M990.543 8.89211L991.869 24.0546M998.838 8.14549L1000.16 23.308C1003.31 24.0289 1006.09 25.8479 1008.01 28.4376C1009.93 31.0273 1010.86 34.2175 1010.64 37.4339C1010.42 40.6503 1009.05 43.6815 1006.79 45.9819C1004.54 48.2822 1001.53 49.7006 998.318 49.9816C995.106 50.2626 991.899 49.3878 989.275 47.5146C986.651 45.6415 984.782 42.8931 984.004 39.7642C983.226 36.6354 983.591 33.3316 985.033 30.4478C986.474 27.5639 988.898 25.2895 991.868 24.0339M987.432 9.16432L1001.95 7.89403M983.791 38.7441L1010.67 36.3922" stroke="white" stroke-width="2" stroke-linecap="round" stroke-linejoin="round"/>
<path d="M1064.34 28.9498C1072.86 39.4763 1076.28 50.8331 1071.97 54.3206C1067.67 57.8065 1057.27 52.1009 1048.74 41.5767C1040.22 31.0502 1036.8 19.6934 1041.11 16.2059C1045.41 12.72 1055.81 18.4254 1064.34 28.9498Z" stroke="white" stroke-width="2" stroke-linecap="round" stroke-linejoin="round"/>
<path d="M1056.02 35.2088L1057.06 35.3176M1050.23 27.467C1039.7 35.9912 1034 46.3892 1037.48 50.6959C1040.97 55.0004 1052.33 51.582 1062.85 43.0597C1073.38 34.5355 1079.08 24.1374 1075.6 19.8307C1072.11 15.5263 1060.75 18.9446 1050.23 27.467Z" stroke="white" stroke-width="2" stroke-linecap="round" stroke-linejoin="round"/>
<defs>
<clipPath id="clip0_251_154">
<rect width="49.9713" height="49.9713" fill="white" transform="translate(0 9.53491) rotate(-11)"/>
</clipPath>
<clipPath id="clip1_251_154">
<rect width="49.9713" height="49.9713" fill="white" transform="translate(70.083 5.62866) rotate(12)"/>
</clipPath>
<clipPath id="clip2_251_154">
<rect width="49.9713" height="49.9713" fill="white" transform="translate(179.063 17.0642) rotate(-14)"/>
</clipPath>
<clipPath id="clip3_251_154">
<rect width="49.9713" height="49.9713" fill="white" transform="translate(360.8 8.5022) rotate(-9)"/>
</clipPath>
<clipPath id="clip4_251_154">
<rect width="49.9712" height="49.9712" fill="white" transform="translate(582.661 2.47583) rotate(67)"/>
</clipPath>
<clipPath id="clip5_251_154">
<rect width="49.9712" height="49.9712" fill="white" transform="translate(673.982 3.50439) rotate(19)"/>
</clipPath>
<clipPath id="clip6_251_154">
<rect width="49.9713" height="49.9713" fill="white" transform="translate(727.143 9.53491) rotate(-11)"/>
</clipPath>
<clipPath id="clip7_251_154">
<rect width="49.9713" height="49.9713" fill="white" transform="translate(797.226 5.62866) rotate(12)"/>
</clipPath>
<clipPath id="clip8_251_154">
<rect width="49.9713" height="49.9713" fill="white" transform="translate(906.206 17.041) rotate(-14)"/>
</clipPath>
</defs>
</svg>
