<svg width="86" height="64" viewBox="0 0 86 64" fill="none" xmlns="http://www.w3.org/2000/svg">
<path d="M84.9648 19.3046L46.9078 1.78643C45.6734 1.21786 44.3585 0.930969 43 0.930969C41.6415 0.930969 40.327 1.21786 39.0922 1.78643L1.03519 19.3046C0.406149 19.5953 0 20.2291 0 20.9216C0 21.6141 0.406149 22.2479 1.03519 22.5386L39.0922 40.0568C40.3266 40.6253 41.6415 40.9136 43 40.9136C44.3585 40.9136 45.6734 40.6253 46.9081 40.0568L76.943 26.2319V40.1533C75.7511 40.2877 74.8215 41.3022 74.8215 42.5281C74.8215 43.5962 75.5283 44.5209 76.5358 44.8155L74.5047 58.2179H83.8566L81.8258 44.8155C82.833 44.5209 83.5398 43.5962 83.5398 42.5281C83.5398 41.3022 82.6102 40.2877 81.4183 40.1533V24.1715L84.9651 22.5386C85.594 22.2479 86.0003 21.6141 86.0003 20.9216C86.0003 20.2291 85.5939 19.5953 84.9648 19.3046Z" fill="#4D38D7"/>
<path d="M43 47.2568C41.111 47.2568 39.2806 46.8552 37.5601 46.0635L18.9457 37.4943V54.5663C18.9457 58.3143 30.2711 63.069 43 63.069C55.729 63.069 67.0546 58.3142 67.0546 54.5663V37.4943L48.4391 46.0635C46.7196 46.8552 44.8896 47.2568 43 47.2568Z" fill="#4D38D7"/>
</svg>
