<svg width="31" height="30" viewBox="0 0 31 30" fill="none" xmlns="http://www.w3.org/2000/svg">
<mask id="mask0_234_455" style="mask-type:luminance" maskUnits="userSpaceOnUse" x="0" y="0" width="31" height="30">
<path d="M30.1484 0H0.148438V30H30.1484V0Z" fill="white"/>
</mask>
<g mask="url(#mask0_234_455)">
<path d="M0.148438 14.4C0.148438 7.61178 0.148438 4.21767 2.27836 2.10883C4.40828 0 7.83634 0 14.6924 0H15.9044C22.7605 0 26.1886 0 28.3185 2.10883C30.4484 4.21767 30.4484 7.61178 30.4484 14.4V15.6C30.4484 22.3882 30.4484 25.7823 28.3185 27.8912C26.1886 30 22.7605 30 15.9044 30H14.6924C7.83634 30 4.40828 30 2.27836 27.8912C0.148438 25.7823 0.148438 22.3882 0.148438 15.6V14.4Z" fill="#0077FF"/>
<path d="M16.2707 21.6125C9.36482 21.6125 5.42585 16.925 5.26172 9.125H8.72098C8.8346 14.85 11.3848 17.275 13.4048 17.775V9.125H16.6622V14.0625C18.6569 13.85 20.7524 11.6 21.4594 9.125H24.7167C24.1739 12.175 21.9014 14.425 20.2854 15.35C21.9014 16.1 24.4896 18.0625 25.4744 21.6125H21.8888C21.1186 19.2375 19.1998 17.4 16.6622 17.15V21.6125H16.2707Z" fill="white"/>
</g>
</svg>
