<svg width="575" height="534" viewBox="0 0 575 534" fill="none" xmlns="http://www.w3.org/2000/svg">
<path d="M0.22168 8C0.22168 3.58172 3.8034 0 8.22168 0H566.222C570.64 0 574.222 3.58172 574.222 8V526C574.222 530.418 570.64 534 566.222 534H8.22169C3.80341 534 0.22168 530.418 0.22168 526V8Z" fill="#4A36CD"/>
<mask id="mask0_235_748" style="mask-type:alpha" maskUnits="userSpaceOnUse" x="0" y="0" width="575" height="534">
<path d="M0.22168 8C0.22168 3.58172 3.8034 0 8.22168 0H566.222C570.64 0 574.222 3.58172 574.222 8V526C574.222 530.418 570.64 534 566.222 534H8.22169C3.80341 534 0.22168 530.418 0.22168 526V8Z" fill="#4A36CD"/>
</mask>
<g mask="url(#mask0_235_748)">
<g clip-path="url(#clip0_235_748)">
<path d="M14.8656 21.1227C15.9613 20.9097 17.0883 20.9146 18.1821 21.1372C19.2759 21.3597 20.3152 21.7955 21.2406 22.4197C22.166 23.0439 22.9594 23.8443 23.5755 24.7751C24.1916 25.7059 24.6183 26.7489 24.8313 27.8447L29.2403 50.5273C29.487 51.8137 29.4714 53.1366 29.1944 54.4168C28.9175 55.697 28.3848 56.9081 27.6284 57.9774C26.8721 59.0468 25.9076 59.9524 24.7927 60.64C23.6779 61.3275 22.4357 61.7829 21.1406 61.9787C19.8455 62.1746 18.5242 62.1069 17.2559 61.7797C15.9876 61.4526 14.7984 60.8727 13.7597 60.0748C12.7209 59.2769 11.854 58.2775 11.2108 57.1364C10.5677 55.9954 10.1616 54.7362 10.0169 53.4344C7.61338 51.6823 5.54737 47.7543 4.86931 44.266C3.94661 39.5192 5.38117 34.4523 8.36503 31.9841C8.01141 30.8433 7.90214 29.6409 8.04435 28.4551C8.18655 27.2693 8.57705 26.1268 9.19037 25.1021C9.8037 24.0773 10.6261 23.1933 11.6039 22.5076C12.5818 21.822 13.6931 21.3501 14.8656 21.1227Z" stroke="white" stroke-width="2" stroke-linecap="round" stroke-linejoin="round"/>
<path d="M13.8779 36.7993C12.5964 36.7573 9.46959 35.4768 8.36276 32.01M20.8131 45.169C25.7104 43.635 26.6649 37.9702 26.3768 35.7959M11.5995 47.9314C10.5422 49.1556 9.98064 51.5824 10.0092 53.4324M31.5532 17.879C29.3403 18.3092 27.3889 19.6008 26.1283 21.4697C24.8677 23.3387 24.4011 25.6318 24.8313 27.8447L29.2403 50.5274C29.4935 51.8125 30.0036 53.0332 30.7399 54.1165C31.4763 55.1997 32.4239 56.123 33.5257 56.8312C34.6276 57.5393 35.8612 58.0177 37.1524 58.2376C38.4436 58.4574 39.766 58.4143 41.0401 58.1107C42.3143 57.8072 43.514 57.2495 44.5674 56.471C45.6208 55.6925 46.5061 54.7094 47.1703 53.5805C47.8346 52.4516 48.264 51.2002 48.4329 49.9013C48.6017 48.6024 48.5066 47.2828 48.1531 46.0216C49.7252 43.4966 50.1658 39.0814 49.4878 35.5932C48.5651 30.8463 45.3404 26.6851 41.6457 25.515C41.5463 24.3252 41.1973 23.1697 40.6215 22.1237C40.0457 21.0777 39.256 20.1648 38.3038 19.4444C37.3517 18.724 36.2584 18.2123 35.0953 17.9426C33.9322 17.6728 32.7253 17.6512 31.5532 17.879Z" stroke="white" stroke-width="2" stroke-linecap="round" stroke-linejoin="round"/>
<path d="M38.3413 32.0439C39.5139 31.5249 41.9333 29.1664 41.6608 25.5374M35.0465 42.4022C29.9312 42.8144 26.9241 37.9197 26.3767 35.7958M44.6241 41.5119C46.0629 42.251 47.4927 44.2906 48.1593 46.0166" stroke="white" stroke-width="2" stroke-linecap="round" stroke-linejoin="round"/>
</g>
<g clip-path="url(#clip1_235_748)">
<path d="M75.6143 23.4109L106.181 29.9081M78.671 24.0606L71.7406 56.6655C71.5108 57.7465 71.7199 58.8744 72.3217 59.8012C72.9236 60.7279 73.869 61.3777 74.9499 61.6074L91.2524 65.0726C92.3333 65.3024 93.4612 65.0933 94.388 64.4915C95.3148 63.8896 95.9645 62.9442 96.1943 61.8633L103.125 29.2584M73.9063 46.4765L98.36 51.6743" stroke="white" stroke-width="2" stroke-linecap="round" stroke-linejoin="round"/>
</g>
<path d="M135.636 52.5419L152.24 51.0893M130.136 61.3882L167.494 58.1199M152.966 59.3909C156.819 59.0538 160.38 57.1999 162.866 54.2371C165.352 51.2742 166.56 47.4451 166.223 43.5921C165.886 39.739 164.032 36.1777 161.069 33.6916C158.106 31.2055 154.277 29.9981 150.424 30.3352L148.348 30.5168M141.136 43.6955L145.287 43.3324M145.91 26.5476L145.365 20.3214C145.317 19.7709 145.052 19.2622 144.629 18.907C144.206 18.5518 143.659 18.3794 143.108 18.4275L138.957 18.7907C138.407 18.8388 137.898 19.1037 137.543 19.5269C137.188 19.9502 137.015 20.4972 137.063 21.0477L137.608 27.2739M140.773 39.5447C139.672 39.641 138.578 39.2961 137.732 38.5858C136.885 37.8754 136.355 36.8579 136.259 35.7571L135.533 27.4555L147.985 26.366L148.712 34.6676C148.808 35.7685 148.463 36.8625 147.753 37.7091C147.042 38.5556 146.025 39.0853 144.924 39.1816L140.773 39.5447Z" stroke="white" stroke-width="2" stroke-linecap="round" stroke-linejoin="round"/>
<g clip-path="url(#clip2_235_748)">
<path d="M188.297 56.1043C198.75 40.6154 215.249 49.3844 225.702 33.8955M205.975 66.7264C208.602 61.7813 209.051 57.3816 208.629 53.1971M208.023 23.2734C205.396 28.2184 204.947 32.6182 205.37 36.8027M214.082 30.3512L207.769 26.5576M209.026 35.9061L206.501 34.3886M199.916 59.6486L206.23 63.4422M191.077 54.3376L192.34 55.0963M221.659 34.9035L222.921 35.6622M196.133 48.7826L198.659 50.3001M215.34 39.6997L217.865 41.2171M204.972 54.0937L208.76 56.3699" stroke="white" stroke-width="2" stroke-linecap="round" stroke-linejoin="round"/>
</g>
<path d="M261.033 18.6089L262.36 33.7802M269.332 17.8619L270.66 33.0331C273.804 33.7544 276.587 35.5745 278.509 38.1657C280.431 40.7569 281.364 43.9489 281.141 47.1671C280.918 50.3854 279.554 53.4184 277.294 55.72C275.033 58.0217 272.026 59.4409 268.812 59.7221C265.598 60.0032 262.39 59.1279 259.764 57.2537C257.139 55.3794 255.268 52.6295 254.49 49.4988C253.712 46.3682 254.077 43.0625 255.519 40.177C256.962 37.2915 259.387 35.0157 262.358 33.7594M257.919 18.8813L272.447 17.6103M254.277 48.4781L281.174 46.1249" stroke="white" stroke-width="2" stroke-linecap="round" stroke-linejoin="round"/>
<path d="M334.801 38.6829C343.33 49.2154 346.748 60.5787 342.439 64.0683C338.134 67.5561 327.726 61.8473 319.199 51.3171C310.67 40.7845 307.251 29.4212 311.56 25.9317C315.865 22.4438 326.271 28.1524 334.801 38.6829Z" stroke="white" stroke-width="2" stroke-linecap="round" stroke-linejoin="round"/>
<path d="M326.481 44.9455L327.517 45.0544M320.684 37.1992C310.152 45.7283 304.443 56.1323 307.933 60.4415C311.421 64.7484 322.786 61.3281 333.317 52.8009C343.849 44.2718 349.557 33.8677 346.068 29.5585C342.58 25.2516 331.215 28.6719 320.684 37.1992Z" stroke="white" stroke-width="2" stroke-linecap="round" stroke-linejoin="round"/>
<g clip-path="url(#clip3_235_748)">
<path d="M375.497 20.71C376.599 20.5353 377.725 20.5796 378.811 20.8402C379.896 21.1007 380.92 21.5726 381.823 22.2287C382.726 22.8848 383.491 23.7123 384.074 24.6641C384.657 25.6158 385.047 26.6731 385.222 27.7756L388.837 50.5983C389.038 51.8925 388.976 53.2141 388.655 54.4838C388.333 55.7536 387.759 56.9453 386.966 57.9876C386.172 59.03 385.177 59.9013 384.039 60.5496C382.901 61.1978 381.643 61.6096 380.342 61.7601C379.041 61.9106 377.723 61.7969 376.467 61.4256C375.211 61.0544 374.042 60.4334 373.032 59.5997C372.022 58.7661 371.19 57.737 370.587 56.5742C369.984 55.4114 369.623 54.1388 369.523 52.8328C367.182 50.9978 365.255 47.0001 364.699 43.4903C363.942 38.7141 365.553 33.7005 368.621 31.3378C368.307 30.1855 368.24 28.9799 368.424 27.7998C368.607 26.6197 369.037 25.4915 369.686 24.4888C370.335 23.4861 371.188 22.6313 372.189 21.9802C373.19 21.3291 374.317 20.8963 375.497 20.71Z" stroke="white" stroke-width="2" stroke-linecap="round" stroke-linejoin="round"/>
<path d="M373.963 36.3425C372.683 36.2558 369.603 34.867 368.618 31.3637M380.601 44.9492C385.549 43.587 386.701 37.959 386.489 35.7759M371.297 47.3883C370.198 48.5749 369.552 50.9806 369.516 52.8304M392.287 18.0506C390.061 18.4033 388.066 19.626 386.741 21.4498C385.415 23.2736 384.869 25.5491 385.222 27.7757L388.837 50.5983C389.045 51.8915 389.512 53.1293 390.21 54.2376C390.908 55.3458 391.823 56.3017 392.899 57.0479C393.976 57.7941 395.192 58.3152 396.475 58.58C397.758 58.8448 399.081 58.8478 400.365 58.5889C401.648 58.33 402.867 57.8145 403.947 57.0733C405.027 56.332 405.946 55.3804 406.649 54.2753C407.352 53.1703 407.825 51.9346 408.039 50.6424C408.253 49.3502 408.204 48.0281 407.895 46.7553C409.554 44.2868 410.149 39.8897 409.593 36.3798C408.836 31.6037 405.759 27.3325 402.107 26.0342C402.049 24.8416 401.741 23.6746 401.202 22.6092C400.663 21.5437 399.906 20.6038 398.979 19.8506C398.053 19.0974 396.978 18.5479 395.825 18.2377C394.672 17.9276 393.467 17.8638 392.287 18.0506Z" stroke="white" stroke-width="2" stroke-linecap="round" stroke-linejoin="round"/>
<path d="M398.577 32.4439C399.767 31.9662 402.267 29.6935 402.122 26.0572M394.923 42.6809C389.796 42.9143 386.962 37.9176 386.489 35.7759M404.525 42.1254C405.938 42.9142 407.295 45.0025 407.901 46.7507" stroke="white" stroke-width="2" stroke-linecap="round" stroke-linejoin="round"/>
</g>
<path d="M433.068 24.9595L464.199 27.6831M436.181 25.2318L433.276 58.4383C433.18 59.5392 433.525 60.6332 434.235 61.4798C434.946 62.3263 435.963 62.856 437.064 62.9523L453.667 64.4049C454.768 64.5012 455.862 64.1562 456.709 63.4459C457.555 62.7356 458.085 61.7181 458.181 60.6172L461.086 27.4107M434.184 48.0613L459.089 50.2402" stroke="white" stroke-width="2" stroke-linecap="round" stroke-linejoin="round"/>
<path d="M495.636 52.5419L512.24 51.0893M490.136 61.3882L527.494 58.1199M512.966 59.3909C516.819 59.0538 520.38 57.1999 522.866 54.2371C525.352 51.2742 526.56 47.4451 526.223 43.5921C525.886 39.739 524.032 36.1777 521.069 33.6916C518.106 31.2055 514.277 29.9981 510.424 30.3352L508.348 30.5168M501.136 43.6955L505.287 43.3324M505.91 26.5476L505.365 20.3214C505.317 19.7709 505.052 19.2622 504.629 18.907C504.206 18.5518 503.659 18.3794 503.108 18.4275L498.957 18.7907C498.407 18.8388 497.898 19.1037 497.543 19.5269C497.188 19.9502 497.015 20.4972 497.063 21.0477L497.608 27.2739M500.773 39.5447C499.672 39.641 498.578 39.2961 497.732 38.5858C496.885 37.8754 496.355 36.8579 496.259 35.7571L495.533 27.4555L507.985 26.366L508.712 34.6676C508.808 35.7685 508.463 36.8625 507.753 37.7091C507.042 38.5556 506.025 39.0853 504.924 39.1816L500.773 39.5447Z" stroke="white" stroke-width="2" stroke-linecap="round" stroke-linejoin="round"/>
<g clip-path="url(#clip4_235_748)">
<path d="M553.108 28.2647C570.041 36.166 563.961 53.8336 580.895 61.7349M545.382 47.3869C550.677 49.2085 555.093 48.9636 559.16 47.8915M588.62 42.6127C583.325 40.7911 578.909 41.0359 574.843 42.1081M582.578 49.7042L585.337 42.8749M576.3 45.5791L577.404 42.8474M551.425 40.2953L548.665 47.1247M555.288 30.7342L554.736 32.1001M579.266 57.8995L578.715 59.2653M561.565 34.8593L560.461 37.5911M573.541 52.4085L572.437 55.1402M557.702 44.4204L556.047 48.518" stroke="white" stroke-width="2" stroke-linecap="round" stroke-linejoin="round"/>
</g>
<g clip-path="url(#clip5_235_748)">
<path d="M12.6143 152.722L43.1814 159.219M15.671 153.371L8.74058 185.976C8.51082 187.057 8.71987 188.185 9.32173 189.112C9.9236 190.039 10.869 190.688 11.9499 190.918L28.2524 194.383C29.3333 194.613 30.4612 194.404 31.388 193.802C32.3148 193.2 32.9645 192.255 33.1943 191.174L40.1247 158.569M10.9063 175.787L35.36 180.985" stroke="white" stroke-width="2" stroke-linecap="round" stroke-linejoin="round"/>
</g>
<path d="M72.6363 181.853L89.2395 180.4M67.1364 190.699L104.494 187.431M89.9658 188.702C93.8189 188.365 97.3802 186.511 99.8663 183.548C102.352 180.585 103.56 176.756 103.223 172.903C102.886 169.05 101.032 165.489 98.0688 163.002C95.1059 160.516 91.2768 159.309 87.4238 159.646L85.3484 159.828M78.1362 173.006L82.287 172.643M82.9098 155.858L82.3651 149.632C82.3169 149.082 82.0521 148.573 81.6288 148.218C81.2056 147.863 80.6586 147.69 80.1081 147.738L75.9573 148.101C75.4069 148.15 74.8981 148.414 74.543 148.838C74.1878 149.261 74.0153 149.808 74.0635 150.358L74.6082 156.585M77.7731 168.856C76.6722 168.952 75.5782 168.607 74.7316 167.897C73.8851 167.186 73.3554 166.169 73.2591 165.068L72.5328 156.766L84.9852 155.677L85.7115 163.978C85.8078 165.079 85.4629 166.173 84.7526 167.02C84.0422 167.866 83.0247 168.396 81.9239 168.492L77.7731 168.856Z" stroke="white" stroke-width="2" stroke-linecap="round" stroke-linejoin="round"/>
<g clip-path="url(#clip6_235_748)">
<path d="M125.297 185.415C135.75 169.926 152.249 178.695 162.702 163.206M142.975 196.037C145.602 191.092 146.051 186.692 145.629 182.508M145.023 152.584C142.396 157.529 141.947 161.929 142.37 166.113M151.082 159.662L144.769 155.868M146.026 165.217L143.501 163.699M136.916 188.959L143.23 192.753M128.077 183.648L129.34 184.407M158.659 164.214L159.921 164.973M133.133 178.093L135.659 179.611M152.34 169.01L154.865 170.528M141.972 183.404L145.76 185.681" stroke="white" stroke-width="2" stroke-linecap="round" stroke-linejoin="round"/>
</g>
<path d="M198.033 147.92L199.36 163.091M206.332 147.173L207.66 162.344C210.804 163.065 213.587 164.885 215.509 167.476C217.431 170.068 218.364 173.26 218.141 176.478C217.918 179.696 216.554 182.729 214.294 185.031C212.033 187.333 209.026 188.752 205.812 189.033C202.598 189.314 199.39 188.439 196.764 186.564C194.139 184.69 192.268 181.94 191.49 178.81C190.712 175.679 191.077 172.373 192.519 169.488C193.962 166.602 196.387 164.327 199.358 163.07M194.919 148.192L209.447 146.921M191.277 177.789L218.174 175.436" stroke="white" stroke-width="2" stroke-linecap="round" stroke-linejoin="round"/>
<path d="M271.801 167.994C280.33 178.526 283.748 189.89 279.439 193.379C275.134 196.867 264.726 191.158 256.199 180.628C247.67 170.095 244.251 158.732 248.56 155.242C252.865 151.755 263.271 157.463 271.801 167.994Z" stroke="white" stroke-width="2" stroke-linecap="round" stroke-linejoin="round"/>
<path d="M263.481 174.256L264.517 174.365M257.684 166.51C247.152 175.039 241.443 185.443 244.933 189.752C248.421 194.059 259.786 190.639 270.317 182.112C280.849 173.583 286.557 163.179 283.068 158.869C279.58 154.562 268.215 157.983 257.684 166.51Z" stroke="white" stroke-width="2" stroke-linecap="round" stroke-linejoin="round"/>
<g clip-path="url(#clip7_235_748)">
<path d="M312.497 150.021C313.599 149.846 314.725 149.89 315.811 150.151C316.896 150.412 317.92 150.883 318.823 151.539C319.726 152.196 320.491 153.023 321.074 153.975C321.657 154.927 322.047 155.984 322.222 157.086L325.837 179.909C326.038 181.203 325.976 182.525 325.655 183.795C325.333 185.064 324.759 186.256 323.966 187.298C323.172 188.341 322.177 189.212 321.039 189.86C319.901 190.509 318.643 190.92 317.342 191.071C316.041 191.221 314.723 191.108 313.467 190.736C312.211 190.365 311.042 189.744 310.032 188.91C309.022 188.077 308.19 187.048 307.587 185.885C306.984 184.722 306.623 183.45 306.523 182.144C304.182 180.309 302.255 176.311 301.699 172.801C300.942 168.025 302.553 163.011 305.621 160.649C305.307 159.496 305.24 158.291 305.424 157.111C305.607 155.931 306.037 154.802 306.686 153.8C307.335 152.797 308.188 151.942 309.189 151.291C310.19 150.64 311.317 150.207 312.497 150.021Z" stroke="white" stroke-width="2" stroke-linecap="round" stroke-linejoin="round"/>
<path d="M310.963 165.653C309.683 165.567 306.603 164.178 305.618 160.674M317.601 174.26C322.549 172.898 323.701 167.27 323.489 165.087M308.297 176.699C307.198 177.886 306.552 180.291 306.516 182.141M329.287 147.361C327.061 147.714 325.066 148.937 323.741 150.761C322.415 152.584 321.869 154.86 322.222 157.086L325.837 179.909C326.045 181.202 326.512 182.44 327.21 183.548C327.908 184.657 328.823 185.612 329.899 186.359C330.976 187.105 332.192 187.626 333.475 187.891C334.758 188.156 336.081 188.159 337.365 187.9C338.648 187.641 339.867 187.125 340.947 186.384C342.027 185.643 342.946 184.691 343.649 183.586C344.352 182.481 344.825 181.245 345.039 179.953C345.253 178.661 345.204 177.339 344.895 176.066C346.554 173.598 347.149 169.2 346.593 165.691C345.836 160.914 342.759 156.643 339.107 155.345C339.049 154.152 338.741 152.985 338.202 151.92C337.663 150.855 336.906 149.915 335.979 149.161C335.053 148.408 333.978 147.859 332.825 147.549C331.672 147.238 330.467 147.175 329.287 147.361Z" stroke="white" stroke-width="2" stroke-linecap="round" stroke-linejoin="round"/>
<path d="M335.577 161.755C336.767 161.277 339.267 159.004 339.122 155.368M331.923 171.992C326.796 172.225 323.962 167.228 323.489 165.087M341.525 171.436C342.938 172.225 344.295 174.313 344.901 176.061" stroke="white" stroke-width="2" stroke-linecap="round" stroke-linejoin="round"/>
</g>
<path d="M370.068 154.27L401.199 156.994M373.181 154.543L370.276 187.749C370.18 188.85 370.525 189.944 371.235 190.791C371.946 191.637 372.963 192.167 374.064 192.263L390.667 193.716C391.768 193.812 392.862 193.467 393.709 192.757C394.555 192.046 395.085 191.029 395.181 189.928L398.086 156.722M371.184 177.372L396.089 179.551" stroke="white" stroke-width="2" stroke-linecap="round" stroke-linejoin="round"/>
<path d="M432.636 181.853L449.24 180.4M427.136 190.699L464.494 187.431M449.966 188.702C453.819 188.365 457.38 186.511 459.866 183.548C462.352 180.585 463.56 176.756 463.223 172.903C462.886 169.05 461.032 165.489 458.069 163.002C455.106 160.516 451.277 159.309 447.424 159.646L445.348 159.828M438.136 173.006L442.287 172.643M442.91 155.858L442.365 149.632C442.317 149.082 442.052 148.573 441.629 148.218C441.206 147.863 440.659 147.69 440.108 147.738L435.957 148.101C435.407 148.15 434.898 148.414 434.543 148.838C434.188 149.261 434.015 149.808 434.063 150.358L434.608 156.585M437.773 168.856C436.672 168.952 435.578 168.607 434.732 167.897C433.885 167.186 433.355 166.169 433.259 165.068L432.533 156.766L444.985 155.677L445.712 163.978C445.808 165.079 445.463 166.173 444.753 167.02C444.042 167.866 443.025 168.396 441.924 168.492L437.773 168.856Z" stroke="white" stroke-width="2" stroke-linecap="round" stroke-linejoin="round"/>
<g clip-path="url(#clip8_235_748)">
<path d="M490.108 157.575C507.041 165.477 500.961 183.144 517.895 191.046M482.382 176.698C487.677 178.519 492.093 178.274 496.16 177.202M525.62 171.923C520.325 170.102 515.909 170.347 511.843 171.419M519.578 179.015L522.337 172.186M513.3 174.89L514.404 172.158M488.425 169.606L485.665 176.435M492.288 160.045L491.736 161.411M516.266 187.21L515.715 188.576M498.565 164.17L497.461 166.902M510.541 181.719L509.437 184.451M494.702 173.731L493.047 177.829" stroke="white" stroke-width="2" stroke-linecap="round" stroke-linejoin="round"/>
</g>
<path d="M562.034 147.156L560.442 162.302M570.324 148.006L568.732 163.152C571.681 164.46 574.066 166.778 575.458 169.688C576.849 172.598 577.157 175.91 576.324 179.026C575.491 182.143 573.573 184.86 570.915 186.688C568.257 188.516 565.034 189.335 561.826 188.998C558.617 188.661 555.635 187.189 553.415 184.849C551.195 182.508 549.884 179.452 549.718 176.23C549.551 173.008 550.54 169.833 552.507 167.276C554.473 164.719 557.288 162.947 560.444 162.281M558.926 146.829L573.429 148.354M549.703 175.187L576.555 178.01" stroke="white" stroke-width="2" stroke-linecap="round" stroke-linejoin="round"/>
<g clip-path="url(#clip9_235_748)">
<path d="M14.7464 283.354C15.8345 283.142 16.9536 283.147 18.0399 283.368C19.1261 283.589 20.1581 284.022 21.0771 284.642C21.996 285.262 22.7839 286.057 23.3957 286.981C24.0075 287.905 24.4313 288.941 24.6428 290.029L29.0212 312.554C29.2661 313.831 29.2506 315.145 28.9756 316.416C28.7005 317.688 28.1716 318.89 27.4205 319.952C26.6694 321.014 25.7116 321.914 24.6045 322.596C23.4974 323.279 22.2638 323.731 20.9778 323.926C19.6917 324.12 18.3796 324.053 17.1201 323.728C15.8606 323.403 14.6797 322.827 13.6482 322.035C12.6167 321.243 11.7558 320.25 11.1171 319.117C10.4784 317.984 10.0752 316.734 9.93145 315.441C7.54469 313.701 5.49304 309.8 4.81971 306.336C3.90343 301.622 5.32801 296.591 8.2911 294.14C7.93994 293.007 7.83143 291.813 7.97265 290.635C8.11387 289.458 8.50164 288.323 9.1107 287.306C9.71976 286.288 10.5364 285.41 11.5075 284.729C12.4785 284.048 13.5821 283.58 14.7464 283.354Z" stroke="white" stroke-width="2" stroke-linecap="round" stroke-linejoin="round"/>
<path d="M13.7657 298.922C12.4931 298.88 9.38804 297.608 8.28891 294.166M20.6526 307.233C25.5158 305.71 26.4637 300.084 26.1776 297.925M11.5031 309.976C10.4532 311.192 9.89552 313.602 9.92384 315.439M31.318 280.133C29.1205 280.56 27.1827 281.843 25.9308 283.699C24.679 285.555 24.2157 287.832 24.6428 290.029L29.0212 312.554C29.2726 313.83 29.7791 315.043 30.5104 316.118C31.2416 317.194 32.1826 318.111 33.2768 318.814C34.371 319.517 35.596 319.992 36.8782 320.211C38.1605 320.429 39.4736 320.386 40.7389 320.085C42.0042 319.783 43.1956 319.229 44.2416 318.456C45.2877 317.683 46.1669 316.707 46.8265 315.586C47.4861 314.465 47.9125 313.222 48.0802 311.932C48.2479 310.643 48.1534 309.332 47.8024 308.08C49.3635 305.572 49.8011 301.188 49.1278 297.724C48.2115 293.01 45.0093 288.878 41.3402 287.716C41.2415 286.534 40.895 285.387 40.3232 284.348C39.7514 283.309 38.9672 282.403 38.0216 281.687C37.0761 280.972 35.9905 280.464 34.8354 280.196C33.6804 279.928 32.4819 279.907 31.318 280.133Z" stroke="white" stroke-width="2" stroke-linecap="round" stroke-linejoin="round"/>
<path d="M38.0591 294.199C39.2235 293.684 41.6261 291.342 41.3555 287.738M34.7873 304.485C29.7075 304.895 26.7214 300.034 26.1777 297.925M44.2981 303.601C45.727 304.335 47.1468 306.361 47.8087 308.075" stroke="white" stroke-width="2" stroke-linecap="round" stroke-linejoin="round"/>
</g>
<g clip-path="url(#clip10_235_748)">
<path d="M74.4551 285.872L104.81 292.324M77.4905 286.518L70.6084 318.896C70.3802 319.969 70.5878 321.089 71.1855 322.009C71.7831 322.93 72.7219 323.575 73.7953 323.803L89.9844 327.244C91.0578 327.472 92.1778 327.265 93.0982 326.667C94.0185 326.069 94.6637 325.131 94.8919 324.057L101.774 291.679M72.759 308.777L97.0426 313.939" stroke="white" stroke-width="2" stroke-linecap="round" stroke-linejoin="round"/>
</g>
<path d="M133.645 314.758L150.133 313.316M128.183 323.543L165.281 320.298M150.854 321.56C154.68 321.225 158.217 319.384 160.686 316.442C163.154 313.5 164.353 309.697 164.019 305.871C163.684 302.045 161.843 298.508 158.901 296.039C155.958 293.571 152.156 292.372 148.33 292.706L146.269 292.887M139.107 305.974L143.229 305.613M143.847 288.945L143.306 282.762C143.258 282.216 142.995 281.71 142.575 281.358C142.155 281.005 141.611 280.834 141.065 280.881L136.943 281.242C136.396 281.29 135.891 281.553 135.538 281.973C135.186 282.394 135.014 282.937 135.062 283.483L135.603 289.666M138.746 301.852C137.653 301.947 136.566 301.605 135.726 300.899C134.885 300.194 134.359 299.184 134.263 298.09L133.542 289.847L145.908 288.765L146.629 297.009C146.725 298.102 146.382 299.188 145.677 300.029C144.972 300.869 143.961 301.395 142.868 301.491L138.746 301.852Z" stroke="white" stroke-width="2" stroke-linecap="round" stroke-linejoin="round"/>
<g clip-path="url(#clip11_235_748)">
<path d="M185.524 318.338C195.904 302.957 212.288 311.665 222.669 296.283M203.079 328.886C205.688 323.975 206.134 319.606 205.714 315.451M205.114 285.735C202.504 290.646 202.058 295.015 202.478 299.17M211.13 292.764L204.861 288.997M206.109 298.28L203.601 296.773M197.062 321.857L203.332 325.625M188.285 316.583L189.539 317.337M218.654 297.284L219.908 298.038M193.306 311.067L195.814 312.574M212.379 302.047L214.887 303.554M202.084 316.341L205.845 318.601" stroke="white" stroke-width="2" stroke-linecap="round" stroke-linejoin="round"/>
</g>
<path d="M257.34 281.062L258.658 296.127M265.582 280.32L266.9 295.386C270.023 296.102 272.787 297.909 274.695 300.482C276.603 303.056 277.53 306.225 277.309 309.421C277.088 312.617 275.733 315.629 273.488 317.915C271.244 320.2 268.257 321.61 265.066 321.889C261.874 322.168 258.688 321.299 256.081 319.438C253.473 317.576 251.616 314.846 250.843 311.737C250.07 308.628 250.433 305.345 251.865 302.48C253.298 299.614 255.706 297.354 258.656 296.107M254.249 281.332L268.675 280.07M250.631 310.723L277.341 308.386" stroke="white" stroke-width="2" stroke-linecap="round" stroke-linejoin="round"/>
<path d="M330.18 301.038C338.649 311.497 342.044 322.781 337.765 326.246C333.49 329.71 323.154 324.041 314.686 313.584C306.217 303.125 302.822 291.84 307.101 288.375C311.376 284.911 321.71 290.58 330.18 301.038Z" stroke="white" stroke-width="2" stroke-linecap="round" stroke-linejoin="round"/>
<path d="M321.918 307.257L322.947 307.365M316.162 299.564C305.702 308.034 300.034 318.366 303.499 322.645C306.962 326.922 318.249 323.525 328.706 315.057C339.165 306.588 344.834 296.256 341.369 291.977C337.905 287.7 326.619 291.096 316.162 299.564Z" stroke="white" stroke-width="2" stroke-linecap="round" stroke-linejoin="round"/>
<g clip-path="url(#clip12_235_748)">
<path d="M370.178 283.148C371.273 282.975 372.391 283.019 373.469 283.277C374.547 283.536 375.563 284.005 376.46 284.656C377.357 285.308 378.117 286.13 378.696 287.075C379.275 288.02 379.662 289.07 379.836 290.165L383.425 312.828C383.625 314.114 383.564 315.426 383.245 316.687C382.926 317.948 382.355 319.131 381.567 320.166C380.78 321.201 379.791 322.067 378.661 322.71C377.531 323.354 376.282 323.763 374.99 323.913C373.698 324.062 372.389 323.949 371.141 323.58C369.894 323.212 368.734 322.595 367.731 321.767C366.728 320.939 365.902 319.917 365.303 318.763C364.704 317.608 364.345 316.344 364.246 315.047C361.922 313.225 360.008 309.255 359.456 305.77C358.704 301.027 360.304 296.048 363.35 293.702C363.039 292.558 362.972 291.36 363.154 290.189C363.337 289.017 363.764 287.896 364.408 286.901C365.052 285.905 365.899 285.056 366.893 284.409C367.888 283.763 369.007 283.333 370.178 283.148Z" stroke="white" stroke-width="2" stroke-linecap="round" stroke-linejoin="round"/>
<path d="M368.655 298.672C367.385 298.586 364.326 297.207 363.348 293.728M375.248 307.219C380.161 305.866 381.305 300.277 381.094 298.109M366.008 309.641C364.916 310.819 364.275 313.208 364.239 315.045M386.852 280.507C384.641 280.857 382.66 282.072 381.344 283.883C380.028 285.694 379.486 287.954 379.836 290.165L383.425 312.829C383.632 314.113 384.096 315.342 384.789 316.442C385.483 317.543 386.391 318.492 387.46 319.233C388.529 319.974 389.737 320.492 391.01 320.755C392.284 321.018 393.598 321.021 394.873 320.763C396.148 320.506 397.358 319.994 398.431 319.258C399.503 318.522 400.416 317.577 401.114 316.48C401.812 315.383 402.282 314.156 402.495 312.872C402.707 311.589 402.658 310.276 402.351 309.012C403.999 306.561 404.589 302.194 404.037 298.709C403.286 293.966 400.23 289.725 396.604 288.435C396.546 287.251 396.24 286.092 395.705 285.034C395.17 283.976 394.418 283.043 393.498 282.295C392.578 281.547 391.51 281.001 390.365 280.693C389.22 280.385 388.023 280.322 386.852 280.507Z" stroke="white" stroke-width="2" stroke-linecap="round" stroke-linejoin="round"/>
<path d="M393.098 294.8C394.28 294.326 396.762 292.069 396.618 288.458M389.469 304.966C384.378 305.198 381.563 300.236 381.094 298.109M399.005 304.414C400.407 305.198 401.756 307.271 402.357 309.007" stroke="white" stroke-width="2" stroke-linecap="round" stroke-linejoin="round"/>
</g>
<path d="M426.935 287.41L457.849 290.114M430.026 287.68L427.141 320.656C427.045 321.749 427.388 322.835 428.093 323.676C428.799 324.516 429.809 325.042 430.902 325.138L447.39 326.581C448.483 326.676 449.57 326.334 450.41 325.628C451.251 324.923 451.777 323.913 451.873 322.819L454.758 289.844M428.043 310.351L452.774 312.514" stroke="white" stroke-width="2" stroke-linecap="round" stroke-linejoin="round"/>
<path d="M488.652 314.758L505.14 313.316M483.191 323.543L520.288 320.298M505.861 321.56C509.688 321.225 513.224 319.384 515.693 316.442C518.162 313.5 519.361 309.697 519.026 305.871C518.691 302.045 516.85 298.508 513.908 296.039C510.966 293.571 507.163 292.372 503.337 292.706L501.276 292.887M494.114 305.974L498.236 305.613M498.854 288.945L498.313 282.762C498.266 282.216 498.003 281.71 497.582 281.358C497.162 281.005 496.619 280.834 496.072 280.881L491.95 281.242C491.404 281.29 490.898 281.553 490.546 281.973C490.193 282.394 490.022 282.937 490.07 283.483L490.611 289.666M493.753 301.852C492.66 301.947 491.574 301.605 490.733 300.899C489.892 300.194 489.366 299.184 489.271 298.09L488.55 289.847L500.915 288.765L501.637 297.009C501.732 298.102 501.39 299.188 500.684 300.029C499.979 300.869 498.969 301.395 497.875 301.491L493.753 301.852Z" stroke="white" stroke-width="2" stroke-linecap="round" stroke-linejoin="round"/>
<g clip-path="url(#clip13_235_748)">
<path d="M545.31 290.92C562.126 298.767 556.088 316.311 572.903 324.158M537.638 309.909C542.896 311.718 547.281 311.475 551.32 310.41M580.576 305.168C575.317 303.36 570.932 303.603 566.894 304.667M574.575 312.211L577.315 305.429M568.341 308.114L569.437 305.402M543.639 302.867L540.899 309.649M547.475 293.373L546.927 294.729M571.287 320.349L570.739 321.705M553.709 297.469L552.613 300.182M565.601 314.896L564.505 317.609M549.873 306.964L548.229 311.033" stroke="white" stroke-width="2" stroke-linecap="round" stroke-linejoin="round"/>
</g>
<path d="M12.6363 447.853L29.2395 446.4M7.13637 456.699L44.4937 453.431M29.9658 454.702C33.8189 454.365 37.3802 452.511 39.8663 449.548C42.3524 446.585 43.5597 442.756 43.2226 438.903C42.8856 435.05 41.0317 431.489 38.0688 429.002C35.1059 426.516 31.2768 425.309 27.4238 425.646L25.3484 425.828M18.1362 439.006L22.287 438.643M22.9098 421.858L22.3651 415.632C22.3169 415.082 22.0521 414.573 21.6288 414.218C21.2056 413.863 20.6586 413.69 20.1081 413.738L15.9573 414.101C15.4069 414.15 14.8981 414.414 14.543 414.838C14.1878 415.261 14.0153 415.808 14.0635 416.358L14.6082 422.585M17.7731 434.856C16.6722 434.952 15.5782 434.607 14.7316 433.897C13.8851 433.186 13.3554 432.169 13.2591 431.068L12.5328 422.766L24.9852 421.677L25.7115 429.978C25.8078 431.079 25.4629 432.173 24.7526 433.02C24.0422 433.866 23.0247 434.396 21.9239 434.492L17.7731 434.856Z" stroke="white" stroke-width="2" stroke-linecap="round" stroke-linejoin="round"/>
<g clip-path="url(#clip14_235_748)">
<path d="M65.2967 451.415C75.7497 435.926 92.2487 444.695 102.702 429.206M82.9749 462.037C85.6024 457.092 86.0514 452.692 85.6286 448.508M85.0235 418.584C82.3959 423.529 81.947 427.929 82.3698 432.113M91.0824 425.662L84.7688 421.868M86.026 431.217L83.5006 429.699M76.9159 454.959L83.2296 458.753M68.0769 449.648L69.3396 450.407M98.6587 430.214L99.9215 430.973M73.1332 444.093L75.6586 445.611M92.3397 435.01L94.8651 436.528M81.9723 449.404L85.7605 451.681" stroke="white" stroke-width="2" stroke-linecap="round" stroke-linejoin="round"/>
</g>
<path d="M138.033 413.92L139.36 429.091M146.332 413.173L147.66 428.344C150.804 429.065 153.587 430.885 155.509 433.476C157.431 436.068 158.364 439.26 158.141 442.478C157.918 445.696 156.554 448.729 154.294 451.031C152.033 453.333 149.026 454.752 145.812 455.033C142.598 455.314 139.39 454.439 136.764 452.564C134.139 450.69 132.268 447.94 131.49 444.81C130.712 441.679 131.077 438.373 132.519 435.488C133.962 432.602 136.387 430.327 139.358 429.07M134.919 414.192L149.447 412.921M131.277 443.789L158.174 441.436" stroke="white" stroke-width="2" stroke-linecap="round" stroke-linejoin="round"/>
<path d="M211.801 433.994C220.33 444.526 223.748 455.89 219.439 459.379C215.134 462.867 204.726 457.158 196.199 446.628C187.67 436.095 184.251 424.732 188.56 421.242C192.865 417.755 203.271 423.463 211.801 433.994Z" stroke="white" stroke-width="2" stroke-linecap="round" stroke-linejoin="round"/>
<path d="M203.481 440.256L204.517 440.365M197.684 432.51C187.152 441.039 181.443 451.443 184.933 455.752C188.421 460.059 199.786 456.639 210.317 448.112C220.849 439.583 226.557 429.179 223.068 424.869C219.58 420.562 208.215 423.983 197.684 432.51Z" stroke="white" stroke-width="2" stroke-linecap="round" stroke-linejoin="round"/>
<g clip-path="url(#clip15_235_748)">
<path d="M252.497 416.021C253.599 415.846 254.725 415.89 255.811 416.151C256.896 416.412 257.92 416.883 258.823 417.539C259.726 418.196 260.491 419.023 261.074 419.975C261.657 420.927 262.047 421.984 262.222 423.086L265.837 445.909C266.038 447.203 265.976 448.525 265.655 449.795C265.333 451.064 264.759 452.256 263.966 453.298C263.172 454.341 262.177 455.212 261.039 455.86C259.901 456.509 258.643 456.92 257.342 457.071C256.041 457.221 254.723 457.108 253.467 456.736C252.211 456.365 251.042 455.744 250.032 454.91C249.022 454.077 248.19 453.048 247.587 451.885C246.984 450.722 246.623 449.45 246.523 448.144C244.182 446.309 242.255 442.311 241.699 438.801C240.942 434.025 242.553 429.011 245.621 426.649C245.307 425.496 245.24 424.291 245.424 423.111C245.607 421.931 246.037 420.802 246.686 419.8C247.335 418.797 248.188 417.942 249.189 417.291C250.19 416.64 251.317 416.207 252.497 416.021Z" stroke="white" stroke-width="2" stroke-linecap="round" stroke-linejoin="round"/>
<path d="M250.963 431.653C249.683 431.567 246.603 430.178 245.618 426.674M257.601 440.26C262.549 438.898 263.701 433.27 263.489 431.087M248.297 442.699C247.198 443.886 246.552 446.291 246.516 448.141M269.287 413.361C267.061 413.714 265.066 414.937 263.741 416.761C262.415 418.584 261.869 420.86 262.222 423.086L265.837 445.909C266.045 447.202 266.512 448.44 267.21 449.548C267.908 450.657 268.823 451.612 269.899 452.359C270.976 453.105 272.192 453.626 273.475 453.891C274.758 454.156 276.081 454.159 277.365 453.9C278.648 453.641 279.867 453.125 280.947 452.384C282.027 451.643 282.946 450.691 283.649 449.586C284.352 448.481 284.825 447.245 285.039 445.953C285.253 444.661 285.204 443.339 284.895 442.066C286.554 439.598 287.149 435.2 286.593 431.691C285.836 426.914 282.759 422.643 279.107 421.345C279.049 420.152 278.741 418.985 278.202 417.92C277.663 416.855 276.906 415.915 275.979 415.161C275.053 414.408 273.978 413.859 272.825 413.549C271.672 413.238 270.467 413.175 269.287 413.361Z" stroke="white" stroke-width="2" stroke-linecap="round" stroke-linejoin="round"/>
<path d="M275.577 427.755C276.767 427.277 279.267 425.004 279.122 421.368M271.923 437.992C266.796 438.225 263.962 433.228 263.489 431.087M281.525 437.436C282.938 438.225 284.295 440.313 284.901 442.061" stroke="white" stroke-width="2" stroke-linecap="round" stroke-linejoin="round"/>
</g>
<path d="M310.068 420.27L341.199 422.994M313.181 420.543L310.276 453.749C310.18 454.85 310.525 455.944 311.235 456.791C311.946 457.637 312.963 458.167 314.064 458.263L330.667 459.716C331.768 459.812 332.862 459.467 333.709 458.757C334.555 458.046 335.085 457.029 335.181 455.928L338.086 422.722M311.184 443.372L336.089 445.551" stroke="white" stroke-width="2" stroke-linecap="round" stroke-linejoin="round"/>
<path d="M372.636 447.853L389.24 446.4M367.136 456.699L404.494 453.431M389.966 454.702C393.819 454.365 397.38 452.511 399.866 449.548C402.352 446.585 403.56 442.756 403.223 438.903C402.886 435.05 401.032 431.489 398.069 429.002C395.106 426.516 391.277 425.309 387.424 425.646L385.348 425.828M378.136 439.006L382.287 438.643M382.91 421.858L382.365 415.632C382.317 415.082 382.052 414.573 381.629 414.218C381.206 413.863 380.659 413.69 380.108 413.738L375.957 414.101C375.407 414.15 374.898 414.414 374.543 414.838C374.188 415.261 374.015 415.808 374.063 416.358L374.608 422.585M377.773 434.856C376.672 434.952 375.578 434.607 374.732 433.897C373.885 433.186 373.355 432.169 373.259 431.068L372.533 422.766L384.985 421.677L385.712 429.978C385.808 431.079 385.463 432.173 384.753 433.02C384.042 433.866 383.025 434.396 381.924 434.492L377.773 434.856Z" stroke="white" stroke-width="2" stroke-linecap="round" stroke-linejoin="round"/>
<g clip-path="url(#clip16_235_748)">
<path d="M430.108 423.575C447.041 431.477 440.961 449.144 457.895 457.046M422.382 442.698C427.677 444.519 432.093 444.274 436.16 443.202M465.62 437.923C460.325 436.102 455.909 436.347 451.843 437.419M459.578 445.015L462.337 438.186M453.3 440.89L454.404 438.158M428.425 435.606L425.665 442.435M432.288 426.045L431.736 427.411M456.266 453.21L455.715 454.576M438.565 430.17L437.461 432.902M450.541 447.719L449.437 450.451M434.702 439.731L433.047 443.829" stroke="white" stroke-width="2" stroke-linecap="round" stroke-linejoin="round"/>
</g>
<path d="M502.034 413.156L500.442 428.302M510.324 414.006L508.732 429.152C511.681 430.46 514.066 432.778 515.458 435.688C516.849 438.598 517.157 441.91 516.324 445.026C515.491 448.143 513.573 450.86 510.915 452.688C508.257 454.516 505.034 455.335 501.826 454.998C498.617 454.661 495.635 453.189 493.415 450.849C491.195 448.508 489.884 445.452 489.718 442.23C489.551 439.008 490.54 435.833 492.507 433.276C494.473 430.719 497.288 428.947 500.444 428.281M498.926 412.829L513.429 414.354M489.703 441.187L516.555 444.01" stroke="white" stroke-width="2" stroke-linecap="round" stroke-linejoin="round"/>
<g clip-path="url(#clip17_235_748)">
<path d="M573.023 435.911C578.964 448.092 579.739 459.933 574.755 462.364C569.776 464.794 560.919 456.89 554.979 444.711C549.038 432.53 548.263 420.689 553.247 418.258C558.226 415.828 567.081 423.731 573.023 435.911Z" stroke="white" stroke-width="2" stroke-linecap="round" stroke-linejoin="round"/>
<path d="M563.508 440.141L564.493 440.48M559.602 431.289C547.421 437.231 539.519 446.084 541.949 451.068C544.379 456.049 556.222 455.273 568.401 449.333C580.582 443.392 588.485 434.538 586.054 429.555C583.625 424.574 571.781 425.35 559.602 431.289Z" stroke="white" stroke-width="2" stroke-linecap="round" stroke-linejoin="round"/>
</g>
<path d="M13.6363 116.542L30.2395 115.089M8.13637 125.388L45.4937 122.12M30.9658 123.391C34.8189 123.054 38.3802 121.2 40.8663 118.237C43.3524 115.274 44.5597 111.445 44.2226 107.592C43.8856 103.739 42.0317 100.178 39.0688 97.6916C36.1059 95.2055 32.2768 93.9981 28.4238 94.3352L26.3484 94.5168M19.1362 107.696L23.287 107.332M23.9098 90.5476L23.3651 84.3214C23.3169 83.7709 23.0521 83.2622 22.6288 82.907C22.2056 82.5518 21.6586 82.3794 21.1081 82.4275L16.9573 82.7907C16.4069 82.8388 15.8981 83.1037 15.543 83.5269C15.1878 83.9502 15.0153 84.4972 15.0635 85.0477L15.6082 91.2739M18.7731 103.545C17.6722 103.641 16.5782 103.296 15.7316 102.586C14.8851 101.875 14.3554 100.858 14.2591 99.7571L13.5328 91.4555L25.9852 90.366L26.7115 98.6676C26.8078 99.7685 26.4629 100.863 25.7526 101.709C25.0422 102.556 24.0247 103.085 22.9239 103.182L18.7731 103.545Z" stroke="white" stroke-width="2" stroke-linecap="round" stroke-linejoin="round"/>
<g clip-path="url(#clip18_235_748)">
<path d="M66.2967 120.104C76.7497 104.615 93.2487 113.384 103.702 97.8955M83.9749 130.726C86.6024 125.781 87.0514 121.382 86.6286 117.197M86.0235 87.2734C83.3959 92.2184 82.947 96.6182 83.3698 100.803M92.0824 94.3512L85.7688 90.5576M87.026 99.9061L84.5006 98.3886M77.9159 123.649L84.2296 127.442M69.0769 118.338L70.3396 119.096M99.6587 98.9035L100.921 99.6622M74.1332 112.783L76.6586 114.3M93.3397 103.7L95.8651 105.217M82.9723 118.094L86.7605 120.37" stroke="white" stroke-width="2" stroke-linecap="round" stroke-linejoin="round"/>
</g>
<path d="M139.033 82.6089L140.36 97.7802M147.332 81.8619L148.66 97.0331C151.804 97.7544 154.587 99.5745 156.509 102.166C158.431 104.757 159.364 107.949 159.141 111.167C158.918 114.385 157.554 117.418 155.294 119.72C153.033 122.022 150.026 123.441 146.812 123.722C143.598 124.003 140.39 123.128 137.764 121.254C135.139 119.379 133.268 116.629 132.49 113.499C131.712 110.368 132.077 107.063 133.519 104.177C134.962 101.292 137.387 99.0157 140.358 97.7594M135.919 82.8813L150.447 81.6103M132.277 112.478L159.174 110.125" stroke="white" stroke-width="2" stroke-linecap="round" stroke-linejoin="round"/>
<path d="M212.801 102.683C221.33 113.215 224.748 124.579 220.439 128.068C216.134 131.556 205.726 125.847 197.199 115.317C188.67 104.784 185.251 93.4212 189.56 89.9317C193.865 86.4438 204.271 92.1524 212.801 102.683Z" stroke="white" stroke-width="2" stroke-linecap="round" stroke-linejoin="round"/>
<path d="M204.481 108.945L205.517 109.054M198.684 101.199C188.152 109.728 182.443 120.132 185.933 124.442C189.421 128.748 200.786 125.328 211.317 116.801C221.849 108.272 227.557 97.8677 224.068 93.5585C220.58 89.2516 209.215 92.6719 198.684 101.199Z" stroke="white" stroke-width="2" stroke-linecap="round" stroke-linejoin="round"/>
<g clip-path="url(#clip19_235_748)">
<path d="M253.497 84.71C254.599 84.5353 255.725 84.5796 256.811 84.8402C257.896 85.1007 258.92 85.5726 259.823 86.2287C260.726 86.8848 261.491 87.7123 262.074 88.6641C262.657 89.6158 263.047 90.6731 263.222 91.7756L266.837 114.598C267.038 115.892 266.976 117.214 266.655 118.484C266.333 119.754 265.759 120.945 264.966 121.988C264.172 123.03 263.177 123.901 262.039 124.55C260.901 125.198 259.643 125.61 258.342 125.76C257.041 125.911 255.723 125.797 254.467 125.426C253.211 125.054 252.042 124.433 251.032 123.6C250.022 122.766 249.19 121.737 248.587 120.574C247.984 119.411 247.623 118.139 247.523 116.833C245.182 114.998 243.255 111 242.699 107.49C241.942 102.714 243.553 97.7005 246.621 95.3378C246.307 94.1855 246.24 92.9799 246.424 91.7998C246.607 90.6197 247.037 89.4915 247.686 88.4888C248.335 87.4861 249.188 86.6313 250.189 85.9802C251.19 85.3291 252.317 84.8963 253.497 84.71Z" stroke="white" stroke-width="2" stroke-linecap="round" stroke-linejoin="round"/>
<path d="M251.963 100.342C250.683 100.256 247.603 98.867 246.618 95.3637M258.601 108.949C263.549 107.587 264.701 101.959 264.489 99.7759M249.297 111.388C248.198 112.575 247.552 114.981 247.516 116.83M270.287 82.0506C268.061 82.4033 266.066 83.626 264.741 85.4498C263.415 87.2736 262.869 89.5491 263.222 91.7757L266.837 114.598C267.045 115.892 267.512 117.129 268.21 118.238C268.908 119.346 269.823 120.302 270.899 121.048C271.976 121.794 273.192 122.315 274.475 122.58C275.758 122.845 277.081 122.848 278.365 122.589C279.648 122.33 280.867 121.814 281.947 121.073C283.027 120.332 283.946 119.38 284.649 118.275C285.352 117.17 285.825 115.935 286.039 114.642C286.253 113.35 286.204 112.028 285.895 110.755C287.554 108.287 288.149 103.89 287.593 100.38C286.836 95.6037 283.759 91.3325 280.107 90.0342C280.049 88.8416 279.741 87.6746 279.202 86.6092C278.663 85.5437 277.906 84.6038 276.979 83.8506C276.053 83.0974 274.978 82.5479 273.825 82.2377C272.672 81.9276 271.467 81.8638 270.287 82.0506Z" stroke="white" stroke-width="2" stroke-linecap="round" stroke-linejoin="round"/>
<path d="M276.577 96.4439C277.767 95.9662 280.267 93.6935 280.122 90.0572M272.923 106.681C267.796 106.914 264.962 101.918 264.489 99.7759M282.525 106.125C283.938 106.914 285.295 109.003 285.901 110.751" stroke="white" stroke-width="2" stroke-linecap="round" stroke-linejoin="round"/>
</g>
<path d="M311.068 88.9595L342.199 91.6831M314.181 89.2318L311.276 122.438C311.18 123.539 311.525 124.633 312.235 125.48C312.946 126.326 313.963 126.856 315.064 126.952L331.667 128.405C332.768 128.501 333.862 128.156 334.709 127.446C335.555 126.736 336.085 125.718 336.181 124.617L339.086 91.4107M312.184 112.061L337.089 114.24" stroke="white" stroke-width="2" stroke-linecap="round" stroke-linejoin="round"/>
<path d="M373.636 116.542L390.24 115.089M368.136 125.388L405.494 122.12M390.966 123.391C394.819 123.054 398.38 121.2 400.866 118.237C403.352 115.274 404.56 111.445 404.223 107.592C403.886 103.739 402.032 100.178 399.069 97.6916C396.106 95.2055 392.277 93.9981 388.424 94.3352L386.348 94.5168M379.136 107.696L383.287 107.332M383.91 90.5476L383.365 84.3214C383.317 83.7709 383.052 83.2622 382.629 82.907C382.206 82.5518 381.659 82.3794 381.108 82.4275L376.957 82.7907C376.407 82.8388 375.898 83.1037 375.543 83.5269C375.188 83.9502 375.015 84.4972 375.063 85.0477L375.608 91.2739M378.773 103.545C377.672 103.641 376.578 103.296 375.732 102.586C374.885 101.875 374.355 100.858 374.259 99.7571L373.533 91.4555L385.985 90.366L386.712 98.6676C386.808 99.7685 386.463 100.863 385.753 101.709C385.042 102.556 384.025 103.085 382.924 103.182L378.773 103.545Z" stroke="white" stroke-width="2" stroke-linecap="round" stroke-linejoin="round"/>
<g clip-path="url(#clip20_235_748)">
<path d="M431.108 92.2647C448.041 100.166 441.961 117.834 458.895 125.735M423.382 111.387C428.677 113.208 433.093 112.964 437.16 111.891M466.62 106.613C461.325 104.791 456.909 105.036 452.843 106.108M460.578 113.704L463.337 106.875M454.3 109.579L455.404 106.847M429.425 104.295L426.665 111.125M433.288 94.7342L432.736 96.1001M457.266 121.899L456.715 123.265M439.565 98.8593L438.461 101.591M451.541 116.408L450.437 119.14M435.702 108.42L434.047 112.518" stroke="white" stroke-width="2" stroke-linecap="round" stroke-linejoin="round"/>
</g>
<path d="M503.034 81.8452L501.442 96.9909M511.324 82.6955L509.732 97.8413C512.681 99.1493 515.066 101.467 516.458 104.377C517.849 107.287 518.157 110.599 517.324 113.716C516.491 116.832 514.573 119.549 511.915 121.377C509.257 123.205 506.034 124.025 502.826 123.687C499.617 123.35 496.635 121.879 494.415 119.538C492.195 117.197 490.884 114.141 490.718 110.919C490.551 107.698 491.54 104.522 493.507 101.965C495.473 99.4077 498.288 97.6365 501.444 96.9702M499.926 81.5185L514.429 83.0429M490.703 109.876L517.555 112.699" stroke="white" stroke-width="2" stroke-linecap="round" stroke-linejoin="round"/>
<g clip-path="url(#clip21_235_748)">
<path d="M574.023 104.6C579.964 116.781 580.739 128.622 575.755 131.053C570.776 133.483 561.919 125.579 555.979 113.401C550.038 101.219 549.263 89.3782 554.247 86.9475C559.226 84.5174 568.081 92.4205 574.023 104.6Z" stroke="white" stroke-width="2" stroke-linecap="round" stroke-linejoin="round"/>
<path d="M564.508 108.83L565.493 109.17M560.602 99.9787C548.421 105.92 540.519 114.773 542.949 119.757C545.379 124.738 557.222 123.962 569.401 118.022C581.582 112.081 589.485 103.228 587.054 98.2439C584.625 93.2629 572.781 94.0388 560.602 99.9787Z" stroke="white" stroke-width="2" stroke-linecap="round" stroke-linejoin="round"/>
</g>
<g clip-path="url(#clip22_235_748)">
<path d="M555.866 214.433C556.961 214.221 558.088 214.225 559.182 214.448C560.276 214.671 561.315 215.106 562.241 215.731C563.166 216.355 563.959 217.155 564.575 218.086C565.192 219.017 565.618 220.06 565.831 221.155L570.24 243.838C570.487 245.124 570.471 246.447 570.194 247.728C569.917 249.008 569.385 250.219 568.628 251.288C567.872 252.358 566.908 253.263 565.793 253.951C564.678 254.638 563.436 255.094 562.141 255.29C560.845 255.485 559.524 255.418 558.256 255.091C556.988 254.763 555.798 254.183 554.76 253.386C553.721 252.588 552.854 251.588 552.211 250.447C551.568 249.306 551.162 248.047 551.017 246.745C548.613 244.993 546.547 241.065 545.869 237.577C544.947 232.83 546.381 227.763 549.365 225.295C549.011 224.154 548.902 222.952 549.044 221.766C549.187 220.58 549.577 219.438 550.19 218.413C550.804 217.388 551.626 216.504 552.604 215.818C553.582 215.133 554.693 214.661 555.866 214.433Z" stroke="white" stroke-width="2" stroke-linecap="round" stroke-linejoin="round"/>
<path d="M554.878 230.11C553.596 230.068 550.47 228.788 549.363 225.321M561.813 238.48C566.71 236.946 567.665 231.281 567.377 229.107M552.599 241.242C551.542 242.466 550.981 244.893 551.009 246.743M572.553 211.19C570.34 211.62 568.389 212.912 567.128 214.781C565.868 216.649 565.401 218.943 565.831 221.156L570.24 243.838C570.493 245.123 571.004 246.344 571.74 247.427C572.476 248.51 573.424 249.434 574.526 250.142C575.628 250.85 576.861 251.328 578.152 251.548C579.444 251.768 580.766 251.725 582.04 251.422C583.314 251.118 584.514 250.56 585.567 249.782C586.621 249.003 587.506 248.02 588.17 246.891C588.835 245.762 589.264 244.511 589.433 243.212C589.602 241.913 589.507 240.594 589.153 239.332C590.725 236.807 591.166 232.392 590.488 228.904C589.565 224.157 586.34 219.996 582.646 218.826C582.546 217.636 582.197 216.48 581.621 215.434C581.046 214.389 580.256 213.476 579.304 212.755C578.352 212.035 577.258 211.523 576.095 211.253C574.932 210.984 573.725 210.962 572.553 211.19Z" stroke="white" stroke-width="2" stroke-linecap="round" stroke-linejoin="round"/>
<path d="M579.341 225.355C580.514 224.836 582.933 222.477 582.661 218.848M576.047 235.713C570.931 236.125 567.924 231.23 567.377 229.107M585.624 234.823C587.063 235.562 588.493 237.601 589.159 239.327" stroke="white" stroke-width="2" stroke-linecap="round" stroke-linejoin="round"/>
</g>
<g clip-path="url(#clip23_235_748)">
<path d="M2.29668 249.415C12.7497 233.926 29.2487 242.695 39.7016 227.206M19.9749 260.037C22.6024 255.092 23.0514 250.692 22.6286 246.508M22.0235 216.584C19.3959 221.529 18.947 225.929 19.3698 230.113M28.0824 223.662L21.7688 219.868M23.026 229.217L20.5006 227.699M13.9159 252.959L20.2296 256.753M5.07685 247.648L6.33958 248.407M35.6587 228.214L36.9215 228.973M10.1332 242.093L12.6586 243.611M29.3397 233.01L31.8651 234.528M18.9723 247.404L22.7605 249.681" stroke="white" stroke-width="2" stroke-linecap="round" stroke-linejoin="round"/>
</g>
<path d="M75.0326 211.92L76.3599 227.091M83.3324 211.173L84.6597 226.344C87.804 227.065 90.5874 228.885 92.509 231.476C94.4306 234.068 95.364 237.26 95.1412 240.478C94.9184 243.696 93.554 246.729 91.2938 249.031C89.0335 251.333 86.0258 252.752 82.8121 253.033C79.5984 253.314 76.39 252.439 73.7643 250.564C71.1387 248.69 69.2684 245.94 68.4902 242.81C67.7119 239.679 68.0769 236.373 69.5193 233.488C70.9617 230.602 73.3868 228.327 76.3581 227.07M71.9195 212.192L86.4473 210.921M68.2768 241.789L95.1741 239.436" stroke="white" stroke-width="2" stroke-linecap="round" stroke-linejoin="round"/>
<path d="M148.801 231.994C157.33 242.526 160.748 253.89 156.439 257.379C152.134 260.867 141.726 255.158 133.199 244.628C124.67 234.095 121.251 222.732 125.56 219.242C129.865 215.755 140.271 221.463 148.801 231.994Z" stroke="white" stroke-width="2" stroke-linecap="round" stroke-linejoin="round"/>
<path d="M140.481 238.256L141.517 238.365M134.684 230.51C124.152 239.039 118.443 249.443 121.933 253.752C125.421 258.059 136.786 254.639 147.317 246.112C157.849 237.583 163.557 227.179 160.068 222.869C156.58 218.562 145.215 221.983 134.684 230.51Z" stroke="white" stroke-width="2" stroke-linecap="round" stroke-linejoin="round"/>
<g clip-path="url(#clip24_235_748)">
<path d="M189.497 214.021C190.599 213.846 191.725 213.89 192.811 214.151C193.896 214.412 194.92 214.883 195.823 215.539C196.726 216.196 197.491 217.023 198.074 217.975C198.657 218.927 199.047 219.984 199.222 221.086L202.837 243.909C203.038 245.203 202.976 246.525 202.655 247.795C202.333 249.064 201.759 250.256 200.966 251.298C200.172 252.341 199.177 253.212 198.039 253.86C196.901 254.509 195.643 254.92 194.342 255.071C193.041 255.221 191.723 255.108 190.467 254.736C189.211 254.365 188.042 253.744 187.032 252.91C186.022 252.077 185.19 251.048 184.587 249.885C183.984 248.722 183.623 247.45 183.523 246.144C181.182 244.309 179.255 240.311 178.699 236.801C177.942 232.025 179.553 227.011 182.621 224.649C182.307 223.496 182.24 222.291 182.424 221.111C182.607 219.931 183.037 218.802 183.686 217.8C184.335 216.797 185.188 215.942 186.189 215.291C187.19 214.64 188.317 214.207 189.497 214.021Z" stroke="white" stroke-width="2" stroke-linecap="round" stroke-linejoin="round"/>
<path d="M187.963 229.653C186.683 229.567 183.603 228.178 182.618 224.674M194.601 238.26C199.549 236.898 200.701 231.27 200.489 229.087M185.297 240.699C184.198 241.886 183.552 244.291 183.516 246.141M206.287 211.361C204.061 211.714 202.066 212.937 200.741 214.761C199.415 216.584 198.869 218.86 199.222 221.086L202.837 243.909C203.045 245.202 203.512 246.44 204.21 247.548C204.908 248.657 205.823 249.612 206.899 250.359C207.976 251.105 209.192 251.626 210.475 251.891C211.758 252.156 213.081 252.159 214.365 251.9C215.648 251.641 216.867 251.125 217.947 250.384C219.027 249.643 219.946 248.691 220.649 247.586C221.352 246.481 221.825 245.245 222.039 243.953C222.253 242.661 222.204 241.339 221.895 240.066C223.554 237.598 224.149 233.2 223.593 229.691C222.836 224.914 219.759 220.643 216.107 219.345C216.049 218.152 215.741 216.985 215.202 215.92C214.663 214.855 213.906 213.915 212.979 213.161C212.053 212.408 210.978 211.859 209.825 211.549C208.672 211.238 207.467 211.175 206.287 211.361Z" stroke="white" stroke-width="2" stroke-linecap="round" stroke-linejoin="round"/>
<path d="M212.577 225.755C213.767 225.277 216.267 223.004 216.122 219.368M208.923 235.992C203.796 236.225 200.962 231.228 200.489 229.087M218.525 235.436C219.938 236.225 221.295 238.313 221.901 240.061" stroke="white" stroke-width="2" stroke-linecap="round" stroke-linejoin="round"/>
</g>
<path d="M247.068 218.27L278.199 220.994M250.181 218.543L247.276 251.749C247.18 252.85 247.525 253.944 248.235 254.791C248.946 255.637 249.963 256.167 251.064 256.263L267.667 257.716C268.768 257.812 269.862 257.467 270.709 256.757C271.555 256.046 272.085 255.029 272.181 253.928L275.086 220.722M248.184 241.372L273.089 243.551" stroke="white" stroke-width="2" stroke-linecap="round" stroke-linejoin="round"/>
<path d="M309.636 245.853L326.24 244.4M304.136 254.699L341.494 251.431M326.966 252.702C330.819 252.365 334.38 250.511 336.866 247.548C339.352 244.585 340.56 240.756 340.223 236.903C339.886 233.05 338.032 229.489 335.069 227.002C332.106 224.516 328.277 223.309 324.424 223.646L322.348 223.828M315.136 237.006L319.287 236.643M319.91 219.858L319.365 213.632C319.317 213.082 319.052 212.573 318.629 212.218C318.206 211.863 317.659 211.69 317.108 211.738L312.957 212.101C312.407 212.15 311.898 212.414 311.543 212.838C311.188 213.261 311.015 213.808 311.063 214.358L311.608 220.585M314.773 232.856C313.672 232.952 312.578 232.607 311.732 231.897C310.885 231.186 310.355 230.169 310.259 229.068L309.533 220.766L321.985 219.677L322.712 227.978C322.808 229.079 322.463 230.173 321.753 231.02C321.042 231.866 320.025 232.396 318.924 232.492L314.773 232.856Z" stroke="white" stroke-width="2" stroke-linecap="round" stroke-linejoin="round"/>
<g clip-path="url(#clip25_235_748)">
<path d="M367.108 221.575C384.041 229.477 377.961 247.144 394.895 255.046M359.382 240.698C364.677 242.519 369.093 242.274 373.16 241.202M402.62 235.923C397.325 234.102 392.909 234.347 388.843 235.419M396.578 243.015L399.337 236.186M390.3 238.89L391.404 236.158M365.425 233.606L362.665 240.435M369.288 224.045L368.736 225.411M393.266 251.21L392.715 252.576M375.565 228.17L374.461 230.902M387.541 245.719L386.437 248.451M371.702 237.731L370.047 241.829" stroke="white" stroke-width="2" stroke-linecap="round" stroke-linejoin="round"/>
</g>
<path d="M439.034 211.156L437.442 226.302M447.324 212.006L445.732 227.152C448.681 228.46 451.066 230.778 452.458 233.688C453.849 236.598 454.157 239.91 453.324 243.026C452.491 246.143 450.573 248.86 447.915 250.688C445.257 252.516 442.034 253.335 438.826 252.998C435.617 252.661 432.635 251.189 430.415 248.849C428.195 246.508 426.884 243.452 426.718 240.23C426.551 237.008 427.54 233.833 429.507 231.276C431.473 228.719 434.288 226.947 437.444 226.281M435.926 210.829L450.429 212.354M426.703 239.187L453.555 242.01" stroke="white" stroke-width="2" stroke-linecap="round" stroke-linejoin="round"/>
<g clip-path="url(#clip26_235_748)">
<path d="M510.023 233.911C515.964 246.092 516.739 257.933 511.755 260.364C506.776 262.794 497.919 254.89 491.979 242.711C486.038 230.53 485.263 218.689 490.247 216.258C495.226 213.828 504.081 221.731 510.023 233.911Z" stroke="white" stroke-width="2" stroke-linecap="round" stroke-linejoin="round"/>
<path d="M500.508 238.141L501.493 238.48M496.602 229.289C484.421 235.231 476.519 244.084 478.949 249.068C481.379 254.049 493.222 253.273 505.401 247.333C517.582 241.392 525.485 232.538 523.054 227.555C520.625 222.574 508.781 223.35 496.602 229.289Z" stroke="white" stroke-width="2" stroke-linecap="round" stroke-linejoin="round"/>
</g>
<g clip-path="url(#clip27_235_748)">
<path d="M557.866 474.433C558.961 474.221 560.088 474.225 561.182 474.448C562.276 474.671 563.315 475.106 564.241 475.731C565.166 476.355 565.959 477.155 566.575 478.086C567.192 479.017 567.618 480.06 567.831 481.155L572.24 503.838C572.487 505.124 572.471 506.447 572.194 507.728C571.917 509.008 571.385 510.219 570.628 511.288C569.872 512.358 568.908 513.263 567.793 513.951C566.678 514.638 565.436 515.094 564.141 515.29C562.845 515.485 561.524 515.418 560.256 515.091C558.988 514.763 557.798 514.183 556.76 513.386C555.721 512.588 554.854 511.588 554.211 510.447C553.568 509.306 553.162 508.047 553.017 506.745C550.613 504.993 548.547 501.065 547.869 497.577C546.947 492.83 548.381 487.763 551.365 485.295C551.011 484.154 550.902 482.952 551.044 481.766C551.187 480.58 551.577 479.438 552.19 478.413C552.804 477.388 553.626 476.504 554.604 475.818C555.582 475.133 556.693 474.661 557.866 474.433Z" stroke="white" stroke-width="2" stroke-linecap="round" stroke-linejoin="round"/>
<path d="M556.878 490.11C555.596 490.068 552.47 488.788 551.363 485.321M563.813 498.48C568.71 496.946 569.665 491.281 569.377 489.107M554.599 501.242C553.542 502.466 552.981 504.893 553.009 506.743M574.553 471.19C572.34 471.62 570.389 472.912 569.128 474.781C567.868 476.649 567.401 478.943 567.831 481.156L572.24 503.838C572.493 505.123 573.004 506.344 573.74 507.427C574.476 508.51 575.424 509.434 576.526 510.142C577.628 510.85 578.861 511.328 580.152 511.548C581.444 511.768 582.766 511.725 584.04 511.422C585.314 511.118 586.514 510.56 587.567 509.782C588.621 509.003 589.506 508.02 590.17 506.891C590.835 505.762 591.264 504.511 591.433 503.212C591.602 501.913 591.507 500.594 591.153 499.332C592.725 496.807 593.166 492.392 592.488 488.904C591.565 484.157 588.34 479.996 584.646 478.826C584.546 477.636 584.197 476.48 583.621 475.434C583.046 474.389 582.256 473.476 581.304 472.755C580.352 472.035 579.258 471.523 578.095 471.253C576.932 470.984 575.725 470.962 574.553 471.19Z" stroke="white" stroke-width="2" stroke-linecap="round" stroke-linejoin="round"/>
<path d="M581.341 485.355C582.514 484.836 584.933 482.477 584.661 478.848M578.047 495.713C572.931 496.125 569.924 491.23 569.377 489.107M587.624 494.823C589.063 495.562 590.493 497.601 591.159 499.327" stroke="white" stroke-width="2" stroke-linecap="round" stroke-linejoin="round"/>
</g>
<g clip-path="url(#clip28_235_748)">
<path d="M4.29668 509.415C14.7497 493.926 31.2487 502.695 41.7016 487.206M21.9749 520.037C24.6024 515.092 25.0514 510.692 24.6286 506.508M24.0235 476.584C21.3959 481.529 20.947 485.929 21.3698 490.113M30.0824 483.662L23.7688 479.868M25.026 489.217L22.5006 487.699M15.9159 512.959L22.2296 516.753M7.07685 507.648L8.33958 508.407M37.6587 488.214L38.9215 488.973M12.1332 502.093L14.6586 503.611M31.3397 493.01L33.8651 494.528M20.9723 507.404L24.7605 509.681" stroke="white" stroke-width="2" stroke-linecap="round" stroke-linejoin="round"/>
</g>
<path d="M77.0326 471.92L78.3599 487.091M85.3324 471.173L86.6597 486.344C89.804 487.065 92.5874 488.886 94.509 491.477C96.4306 494.068 97.364 497.26 97.1412 500.478C96.9184 503.696 95.554 506.729 93.2938 509.031C91.0335 511.333 88.0258 512.752 84.8121 513.033C81.5984 513.314 78.39 512.439 75.7643 510.565C73.1387 508.69 71.2684 505.94 70.4902 502.81C69.7119 499.679 70.0769 496.374 71.5193 493.488C72.9617 490.603 75.3868 488.327 78.3581 487.07M73.9195 472.192L88.4473 470.921M70.2768 501.789L97.1741 499.436" stroke="white" stroke-width="2" stroke-linecap="round" stroke-linejoin="round"/>
<path d="M150.801 491.994C159.33 502.526 162.748 513.89 158.439 517.379C154.134 520.867 143.726 515.158 135.199 504.628C126.67 494.095 123.251 482.732 127.56 479.242C131.865 475.755 142.271 481.463 150.801 491.994Z" stroke="white" stroke-width="2" stroke-linecap="round" stroke-linejoin="round"/>
<path d="M142.481 498.256L143.517 498.365M136.684 490.51C126.152 499.039 120.443 509.443 123.933 513.752C127.421 518.059 138.786 514.639 149.317 506.112C159.849 497.583 165.557 487.179 162.068 482.869C158.58 478.562 147.215 481.983 136.684 490.51Z" stroke="white" stroke-width="2" stroke-linecap="round" stroke-linejoin="round"/>
<g clip-path="url(#clip29_235_748)">
<path d="M191.497 474.021C192.599 473.846 193.725 473.89 194.811 474.151C195.896 474.412 196.92 474.883 197.823 475.539C198.726 476.196 199.491 477.023 200.074 477.975C200.657 478.927 201.047 479.984 201.222 481.086L204.837 503.909C205.038 505.203 204.976 506.525 204.655 507.795C204.333 509.064 203.759 510.256 202.966 511.298C202.172 512.341 201.177 513.212 200.039 513.86C198.901 514.509 197.643 514.92 196.342 515.071C195.041 515.221 193.723 515.108 192.467 514.736C191.211 514.365 190.042 513.744 189.032 512.91C188.022 512.077 187.19 511.048 186.587 509.885C185.984 508.722 185.623 507.45 185.523 506.144C183.182 504.309 181.255 500.311 180.699 496.801C179.942 492.025 181.553 487.011 184.621 484.649C184.307 483.496 184.24 482.291 184.424 481.111C184.607 479.931 185.037 478.802 185.686 477.8C186.335 476.797 187.188 475.942 188.189 475.291C189.19 474.64 190.317 474.207 191.497 474.021Z" stroke="white" stroke-width="2" stroke-linecap="round" stroke-linejoin="round"/>
<path d="M189.963 489.653C188.683 489.567 185.603 488.178 184.618 484.674M196.601 498.26C201.549 496.898 202.701 491.27 202.489 489.087M187.297 500.699C186.198 501.886 185.552 504.291 185.516 506.141M208.287 471.361C206.061 471.714 204.066 472.937 202.741 474.761C201.415 476.584 200.869 478.86 201.222 481.086L204.837 503.909C205.045 505.202 205.512 506.44 206.21 507.548C206.908 508.657 207.823 509.612 208.899 510.359C209.976 511.105 211.192 511.626 212.475 511.891C213.758 512.156 215.081 512.159 216.365 511.9C217.648 511.641 218.867 511.125 219.947 510.384C221.027 509.643 221.946 508.691 222.649 507.586C223.352 506.481 223.825 505.245 224.039 503.953C224.253 502.661 224.204 501.339 223.895 500.066C225.554 497.598 226.149 493.2 225.593 489.691C224.836 484.914 221.759 480.643 218.107 479.345C218.049 478.152 217.741 476.985 217.202 475.92C216.663 474.855 215.906 473.915 214.979 473.161C214.053 472.408 212.978 471.859 211.825 471.549C210.672 471.238 209.467 471.175 208.287 471.361Z" stroke="white" stroke-width="2" stroke-linecap="round" stroke-linejoin="round"/>
<path d="M214.577 485.755C215.767 485.277 218.267 483.004 218.122 479.368M210.923 495.992C205.796 496.225 202.962 491.228 202.489 489.087M220.525 495.436C221.938 496.225 223.295 498.313 223.901 500.061" stroke="white" stroke-width="2" stroke-linecap="round" stroke-linejoin="round"/>
</g>
<path d="M249.068 478.27L280.199 480.994M252.181 478.543L249.276 511.749C249.18 512.85 249.525 513.944 250.235 514.791C250.946 515.637 251.963 516.167 253.064 516.263L269.667 517.716C270.768 517.812 271.862 517.467 272.709 516.757C273.555 516.046 274.085 515.029 274.181 513.928L277.086 480.722M250.184 501.372L275.089 503.551" stroke="white" stroke-width="2" stroke-linecap="round" stroke-linejoin="round"/>
<path d="M311.636 505.853L328.24 504.4M306.136 514.699L343.494 511.431M328.966 512.702C332.819 512.365 336.38 510.511 338.866 507.548C341.352 504.585 342.56 500.756 342.223 496.903C341.886 493.05 340.032 489.489 337.069 487.003C334.106 484.516 330.277 483.309 326.424 483.646L324.348 483.828M317.136 497.007L321.287 496.643M321.91 479.859L321.365 473.632C321.317 473.082 321.052 472.573 320.629 472.218C320.206 471.863 319.659 471.69 319.108 471.739L314.957 472.102C314.407 472.15 313.898 472.415 313.543 472.838C313.188 473.261 313.015 473.808 313.063 474.359L313.608 480.585M316.773 492.856C315.672 492.952 314.578 492.607 313.732 491.897C312.885 491.186 312.355 490.169 312.259 489.068L311.533 480.766L323.985 479.677L324.712 487.979C324.808 489.08 324.463 490.174 323.753 491.02C323.042 491.867 322.025 492.396 320.924 492.493L316.773 492.856Z" stroke="white" stroke-width="2" stroke-linecap="round" stroke-linejoin="round"/>
<g clip-path="url(#clip30_235_748)">
<path d="M369.108 481.576C386.041 489.477 379.961 507.145 396.895 515.046M361.382 500.698C366.677 502.52 371.093 502.275 375.16 501.202M404.62 495.924C399.325 494.102 394.909 494.347 390.843 495.419M398.578 503.015L401.337 496.186M392.3 498.89L393.404 496.158M367.425 493.606L364.665 500.436M371.288 484.045L370.736 485.411M395.266 511.21L394.715 512.576M377.565 488.17L376.461 490.902M389.541 505.72L388.437 508.451M373.702 497.731L372.047 501.829" stroke="white" stroke-width="2" stroke-linecap="round" stroke-linejoin="round"/>
</g>
<path d="M441.034 471.156L439.442 486.302M449.324 472.006L447.732 487.152C450.681 488.46 453.066 490.778 454.458 493.688C455.849 496.598 456.157 499.91 455.324 503.026C454.491 506.143 452.573 508.86 449.915 510.688C447.257 512.516 444.034 513.335 440.826 512.998C437.617 512.661 434.635 511.189 432.415 508.849C430.195 506.508 428.884 503.452 428.718 500.23C428.551 497.008 429.54 493.833 431.507 491.276C433.473 488.719 436.288 486.947 439.444 486.281M437.926 470.829L452.429 472.354M428.703 499.187L455.555 502.01" stroke="white" stroke-width="2" stroke-linecap="round" stroke-linejoin="round"/>
<g clip-path="url(#clip31_235_748)">
<path d="M512.023 493.911C517.964 506.092 518.739 517.933 513.755 520.364C508.776 522.794 499.919 514.89 493.979 502.711C488.038 490.53 487.263 478.689 492.247 476.258C497.226 473.828 506.081 481.731 512.023 493.911Z" stroke="white" stroke-width="2" stroke-linecap="round" stroke-linejoin="round"/>
<path d="M502.508 498.141L503.493 498.48M498.602 489.289C486.421 495.231 478.519 504.084 480.949 509.068C483.379 514.049 495.222 513.273 507.401 507.333C519.582 501.392 527.485 492.538 525.054 487.555C522.625 482.574 510.781 483.35 498.602 489.289Z" stroke="white" stroke-width="2" stroke-linecap="round" stroke-linejoin="round"/>
</g>
<g clip-path="url(#clip32_235_748)">
<path d="M11.6143 349.722L42.1814 356.219M14.671 350.371L7.74058 382.976C7.51082 384.057 7.71987 385.185 8.32173 386.112C8.9236 387.039 9.86898 387.688 10.9499 387.918L27.2524 391.383C28.3333 391.613 29.4612 391.404 30.388 390.802C31.3148 390.2 31.9645 389.255 32.1943 388.174L39.1247 355.569M9.90633 372.787L34.36 377.985" stroke="white" stroke-width="2" stroke-linecap="round" stroke-linejoin="round"/>
</g>
<path d="M71.6363 378.853L88.2395 377.4M66.1364 387.699L103.494 384.431M88.9658 385.702C92.8189 385.365 96.3802 383.511 98.8663 380.548C101.352 377.585 102.56 373.756 102.223 369.903C101.886 366.05 100.032 362.489 97.0688 360.002C94.1059 357.516 90.2768 356.309 86.4238 356.646L84.3484 356.828M77.1362 370.006L81.287 369.643M81.9098 352.858L81.3651 346.632C81.3169 346.082 81.0521 345.573 80.6288 345.218C80.2056 344.863 79.6586 344.69 79.1081 344.738L74.9573 345.101C74.4069 345.15 73.8981 345.414 73.543 345.838C73.1878 346.261 73.0153 346.808 73.0635 347.358L73.6082 353.585M76.7731 365.856C75.6722 365.952 74.5782 365.607 73.7316 364.897C72.8851 364.186 72.3554 363.169 72.2591 362.068L71.5328 353.766L83.9852 352.677L84.7115 360.978C84.8078 362.079 84.4629 363.173 83.7526 364.02C83.0422 364.866 82.0247 365.396 80.9239 365.492L76.7731 365.856Z" stroke="white" stroke-width="2" stroke-linecap="round" stroke-linejoin="round"/>
<g clip-path="url(#clip33_235_748)">
<path d="M124.297 382.415C134.75 366.926 151.249 375.695 161.702 360.206M141.975 393.037C144.602 388.092 145.051 383.692 144.629 379.508M144.023 349.584C141.396 354.529 140.947 358.929 141.37 363.113M150.082 356.662L143.769 352.868M145.026 362.217L142.501 360.699M135.916 385.959L142.23 389.753M127.077 380.648L128.34 381.407M157.659 361.214L158.921 361.973M132.133 375.093L134.659 376.611M151.34 366.01L153.865 367.528M140.972 380.404L144.76 382.681" stroke="white" stroke-width="2" stroke-linecap="round" stroke-linejoin="round"/>
</g>
<path d="M197.033 344.92L198.36 360.091M205.332 344.173L206.66 359.344C209.804 360.065 212.587 361.885 214.509 364.476C216.431 367.068 217.364 370.26 217.141 373.478C216.918 376.696 215.554 379.729 213.294 382.031C211.033 384.333 208.026 385.752 204.812 386.033C201.598 386.314 198.39 385.439 195.764 383.564C193.139 381.69 191.268 378.94 190.49 375.81C189.712 372.679 190.077 369.373 191.519 366.488C192.962 363.602 195.387 361.327 198.358 360.07M193.919 345.192L208.447 343.921M190.277 374.789L217.174 372.436" stroke="white" stroke-width="2" stroke-linecap="round" stroke-linejoin="round"/>
<path d="M270.801 364.994C279.33 375.526 282.748 386.89 278.439 390.379C274.134 393.867 263.726 388.158 255.199 377.628C246.67 367.095 243.251 355.732 247.56 352.242C251.865 348.755 262.271 354.463 270.801 364.994Z" stroke="white" stroke-width="2" stroke-linecap="round" stroke-linejoin="round"/>
<path d="M262.481 371.256L263.517 371.365M256.684 363.51C246.152 372.039 240.443 382.443 243.933 386.752C247.421 391.059 258.786 387.639 269.317 379.112C279.849 370.583 285.557 360.179 282.068 355.869C278.58 351.562 267.215 354.983 256.684 363.51Z" stroke="white" stroke-width="2" stroke-linecap="round" stroke-linejoin="round"/>
<g clip-path="url(#clip34_235_748)">
<path d="M311.497 347.021C312.599 346.846 313.725 346.89 314.811 347.151C315.896 347.412 316.92 347.883 317.823 348.539C318.726 349.196 319.491 350.023 320.074 350.975C320.657 351.927 321.047 352.984 321.222 354.086L324.837 376.909C325.038 378.203 324.976 379.525 324.655 380.795C324.333 382.064 323.759 383.256 322.966 384.298C322.172 385.341 321.177 386.212 320.039 386.86C318.901 387.509 317.643 387.92 316.342 388.071C315.041 388.221 313.723 388.108 312.467 387.736C311.211 387.365 310.042 386.744 309.032 385.91C308.022 385.077 307.19 384.048 306.587 382.885C305.984 381.722 305.623 380.45 305.523 379.144C303.182 377.309 301.255 373.311 300.699 369.801C299.942 365.025 301.553 360.011 304.621 357.649C304.307 356.496 304.24 355.291 304.424 354.111C304.607 352.931 305.037 351.802 305.686 350.8C306.335 349.797 307.188 348.942 308.189 348.291C309.19 347.64 310.317 347.207 311.497 347.021Z" stroke="white" stroke-width="2" stroke-linecap="round" stroke-linejoin="round"/>
<path d="M309.963 362.653C308.683 362.567 305.603 361.178 304.618 357.674M316.601 371.26C321.549 369.898 322.701 364.27 322.489 362.087M307.297 373.699C306.198 374.886 305.552 377.291 305.516 379.141M328.287 344.361C326.061 344.714 324.066 345.937 322.741 347.761C321.415 349.584 320.869 351.86 321.222 354.086L324.837 376.909C325.045 378.202 325.512 379.44 326.21 380.548C326.908 381.657 327.823 382.612 328.899 383.359C329.976 384.105 331.192 384.626 332.475 384.891C333.758 385.156 335.081 385.159 336.365 384.9C337.648 384.641 338.867 384.125 339.947 383.384C341.027 382.643 341.946 381.691 342.649 380.586C343.352 379.481 343.825 378.245 344.039 376.953C344.253 375.661 344.204 374.339 343.895 373.066C345.554 370.598 346.149 366.2 345.593 362.691C344.836 357.914 341.759 353.643 338.107 352.345C338.049 351.152 337.741 349.985 337.202 348.92C336.663 347.855 335.906 346.915 334.979 346.161C334.053 345.408 332.978 344.859 331.825 344.549C330.672 344.238 329.467 344.175 328.287 344.361Z" stroke="white" stroke-width="2" stroke-linecap="round" stroke-linejoin="round"/>
<path d="M334.577 358.755C335.767 358.277 338.267 356.004 338.122 352.368M330.923 368.992C325.796 369.225 322.962 364.228 322.489 362.087M340.525 368.436C341.938 369.225 343.295 371.313 343.901 373.061" stroke="white" stroke-width="2" stroke-linecap="round" stroke-linejoin="round"/>
</g>
<path d="M369.068 351.27L400.199 353.994M372.181 351.543L369.276 384.749C369.18 385.85 369.525 386.944 370.235 387.791C370.946 388.637 371.963 389.167 373.064 389.263L389.667 390.716C390.768 390.812 391.862 390.467 392.709 389.757C393.555 389.046 394.085 388.029 394.181 386.928L397.086 353.722M370.184 374.372L395.089 376.551" stroke="white" stroke-width="2" stroke-linecap="round" stroke-linejoin="round"/>
<path d="M431.636 378.853L448.24 377.4M426.136 387.699L463.494 384.431M448.966 385.702C452.819 385.365 456.38 383.511 458.866 380.548C461.352 377.585 462.56 373.756 462.223 369.903C461.886 366.05 460.032 362.489 457.069 360.002C454.106 357.516 450.277 356.309 446.424 356.646L444.348 356.828M437.136 370.006L441.287 369.643M441.91 352.858L441.365 346.632C441.317 346.082 441.052 345.573 440.629 345.218C440.206 344.863 439.659 344.69 439.108 344.738L434.957 345.101C434.407 345.15 433.898 345.414 433.543 345.838C433.188 346.261 433.015 346.808 433.063 347.358L433.608 353.585M436.773 365.856C435.672 365.952 434.578 365.607 433.732 364.897C432.885 364.186 432.355 363.169 432.259 362.068L431.533 353.766L443.985 352.677L444.712 360.978C444.808 362.079 444.463 363.173 443.753 364.02C443.042 364.866 442.025 365.396 440.924 365.492L436.773 365.856Z" stroke="white" stroke-width="2" stroke-linecap="round" stroke-linejoin="round"/>
<g clip-path="url(#clip35_235_748)">
<path d="M489.108 354.575C506.041 362.477 499.961 380.144 516.895 388.046M481.382 373.698C486.677 375.519 491.093 375.274 495.16 374.202M524.62 368.923C519.325 367.102 514.909 367.347 510.843 368.419M518.578 376.015L521.337 369.186M512.3 371.89L513.404 369.158M487.425 366.606L484.665 373.435M491.288 357.045L490.736 358.411M515.266 384.21L514.715 385.576M497.565 361.17L496.461 363.902M509.541 378.719L508.437 381.451M493.702 370.731L492.047 374.829" stroke="white" stroke-width="2" stroke-linecap="round" stroke-linejoin="round"/>
</g>
<path d="M561.034 344.156L559.442 359.302M569.324 345.006L567.732 360.152C570.681 361.46 573.066 363.778 574.458 366.688C575.849 369.598 576.157 372.91 575.324 376.026C574.491 379.143 572.573 381.86 569.915 383.688C567.257 385.516 564.034 386.335 560.826 385.998C557.617 385.661 554.635 384.189 552.415 381.849C550.195 379.508 548.884 376.452 548.718 373.23C548.551 370.008 549.54 366.833 551.507 364.276C553.473 361.719 556.288 359.947 559.444 359.281M557.926 343.829L572.429 345.354M548.703 372.187L575.555 375.01" stroke="white" stroke-width="2" stroke-linecap="round" stroke-linejoin="round"/>
</g>
<defs>
<clipPath id="clip0_235_748">
<rect width="50" height="50" fill="white" transform="translate(-2.31104 19.2297) rotate(-11)"/>
</clipPath>
<clipPath id="clip1_235_748">
<rect width="50" height="50" fill="white" transform="translate(67.7437 15.3484) rotate(12)"/>
</clipPath>
<clipPath id="clip2_235_748">
<rect width="50" height="50" fill="white" transform="translate(176.694 26.7905) rotate(-14)"/>
</clipPath>
<clipPath id="clip3_235_748">
<rect width="50" height="50" fill="white" transform="translate(358.396 18.2188) rotate(-9)"/>
</clipPath>
<clipPath id="clip4_235_748">
<rect width="50" height="50" fill="white" transform="translate(580.246 12.219) rotate(67)"/>
</clipPath>
<clipPath id="clip5_235_748">
<rect width="50" height="50" fill="white" transform="translate(4.74365 144.659) rotate(12)"/>
</clipPath>
<clipPath id="clip6_235_748">
<rect width="50" height="50" fill="white" transform="translate(113.694 156.101) rotate(-14)"/>
</clipPath>
<clipPath id="clip7_235_748">
<rect width="50" height="50" fill="white" transform="translate(295.396 147.53) rotate(-9)"/>
</clipPath>
<clipPath id="clip8_235_748">
<rect width="50" height="50" fill="white" transform="translate(517.246 141.53) rotate(67)"/>
</clipPath>
<clipPath id="clip9_235_748">
<rect width="49.6521" height="49.6521" fill="white" transform="translate(-2.31104 281.474) rotate(-11)"/>
</clipPath>
<clipPath id="clip10_235_748">
<rect width="49.6521" height="49.6521" fill="white" transform="translate(66.6392 277.866) rotate(12)"/>
</clipPath>
<clipPath id="clip11_235_748">
<rect width="49.6521" height="49.6521" fill="white" transform="translate(174.002 289.228) rotate(-14)"/>
</clipPath>
<clipPath id="clip12_235_748">
<rect width="49.6521" height="49.6521" fill="white" transform="translate(353.197 280.674) rotate(-9)"/>
</clipPath>
<clipPath id="clip13_235_748">
<rect width="49.6521" height="49.6521" fill="white" transform="translate(572.259 274.986) rotate(67)"/>
</clipPath>
<clipPath id="clip14_235_748">
<rect width="50" height="50" fill="white" transform="translate(53.6938 422.101) rotate(-14)"/>
</clipPath>
<clipPath id="clip15_235_748">
<rect width="50" height="50" fill="white" transform="translate(235.396 413.53) rotate(-9)"/>
</clipPath>
<clipPath id="clip16_235_748">
<rect width="50" height="50" fill="white" transform="translate(457.246 407.53) rotate(67)"/>
</clipPath>
<clipPath id="clip17_235_748">
<rect width="50" height="50" fill="white" transform="translate(548.502 408.534) rotate(19)"/>
</clipPath>
<clipPath id="clip18_235_748">
<rect width="50" height="50" fill="white" transform="translate(54.6938 90.7905) rotate(-14)"/>
</clipPath>
<clipPath id="clip19_235_748">
<rect width="50" height="50" fill="white" transform="translate(236.396 82.2188) rotate(-9)"/>
</clipPath>
<clipPath id="clip20_235_748">
<rect width="50" height="50" fill="white" transform="translate(458.246 76.219) rotate(67)"/>
</clipPath>
<clipPath id="clip21_235_748">
<rect width="50" height="50" fill="white" transform="translate(549.502 77.2229) rotate(19)"/>
</clipPath>
<clipPath id="clip22_235_748">
<rect width="50" height="50" fill="white" transform="translate(538.689 212.541) rotate(-11)"/>
</clipPath>
<clipPath id="clip23_235_748">
<rect width="50" height="50" fill="white" transform="translate(-9.30615 220.101) rotate(-14)"/>
</clipPath>
<clipPath id="clip24_235_748">
<rect width="50" height="50" fill="white" transform="translate(172.396 211.53) rotate(-9)"/>
</clipPath>
<clipPath id="clip25_235_748">
<rect width="50" height="50" fill="white" transform="translate(394.246 205.53) rotate(67)"/>
</clipPath>
<clipPath id="clip26_235_748">
<rect width="50" height="50" fill="white" transform="translate(485.502 206.534) rotate(19)"/>
</clipPath>
<clipPath id="clip27_235_748">
<rect width="50" height="50" fill="white" transform="translate(540.689 472.541) rotate(-11)"/>
</clipPath>
<clipPath id="clip28_235_748">
<rect width="50" height="50" fill="white" transform="translate(-7.30615 480.101) rotate(-14)"/>
</clipPath>
<clipPath id="clip29_235_748">
<rect width="50" height="50" fill="white" transform="translate(174.396 471.53) rotate(-9)"/>
</clipPath>
<clipPath id="clip30_235_748">
<rect width="50" height="50" fill="white" transform="translate(396.246 465.53) rotate(67)"/>
</clipPath>
<clipPath id="clip31_235_748">
<rect width="50" height="50" fill="white" transform="translate(487.502 466.534) rotate(19)"/>
</clipPath>
<clipPath id="clip32_235_748">
<rect width="50" height="50" fill="white" transform="translate(3.74365 341.659) rotate(12)"/>
</clipPath>
<clipPath id="clip33_235_748">
<rect width="50" height="50" fill="white" transform="translate(112.694 353.101) rotate(-14)"/>
</clipPath>
<clipPath id="clip34_235_748">
<rect width="50" height="50" fill="white" transform="translate(294.396 344.53) rotate(-9)"/>
</clipPath>
<clipPath id="clip35_235_748">
<rect width="50" height="50" fill="white" transform="translate(516.246 338.53) rotate(67)"/>
</clipPath>
</defs>
</svg>
